<svg version="1.2" xmlns="http://www.w3.org/2000/svg" viewBox="0 0 1544 1544" width="1544" height="1544"><style>.a{fill:#66d4ae}.b{fill:#f6b945}.c{fill:#f74459}.d{fill:#bfd566}.e{fill:#fff}</style><path fill-rule="evenodd" d="m772 1523c-415.3 0-751-335.7-751-751 0-415.3 335.7-751 751-751 415.3 0 751 335.7 751 751 0 415.3-335.7 751-751 751zm514-751c0-284.2-229.8-514-514-514-284.2 0-514 229.8-514 514 0 284.2 229.8 514 514 514 284.2 0 514-229.8 514-514zm-1101 0c0-25.4-20.6-46-46-46-25.4 0-46 20.6-46 46 0 25.4 20.6 46 46 46 25.4 0 46-20.6 46-46zm1266 0c0-25.4-20.6-46-46-46-25.4 0-46 20.6-46 46 0 25.4 20.6 46 46 46 25.4 0 46-20.6 46-46z"/><path class="a" d=""/><path class="b" d="m1369.2 921.5c0 0 3.8 1 9.5 2.4 2.8 0.7 6.1 1.5 9.7 2.4 1.7 0.5 3.6 0.9 5.4 1.4 1.9 0.5 3.8 0.9 5.7 1.4 1.9 0.5 3.8 1 5.6 1.4 1.9 0.5 3.7 1 5.5 1.4 3.5 0.9 6.9 1.7 9.7 2.4 5.7 1.4 9.5 2.4 9.5 2.4 0 0-2.1 9.6-4.3 19.1-2.4 9.4-4.8 18.7-4.8 18.7 0 0-3.3-1-8.2-2.6-2.5-0.7-5.4-1.6-8.5-2.6-3-1-6.3-2-9.6-3-3.3-1-6.6-2.1-9.7-3-3.1-1-6-1.9-8.4-2.7-5-1.5-8.2-2.5-8.2-2.5-2.8-0.9-5.4-1.8-7.8-2.7-2.4-0.9-4.6-1.8-6.6-2.7-2-0.9-3.9-1.9-5.6-2.8-1.6-1-3.1-2-4.4-2.9-2.6-2-4.9-4.4-6.8-7.3-1.9-2.8-3.5-6.1-4.7-9.9-1.3-3.8-1.9-7.8-2-12.2-0.2-4.4 0.3-9.1 1.3-14.2 1-5.4 2.3-10.1 3.7-14.2 1.4-4.1 3-7.6 4.8-10.4 1.8-2.8 3.9-5.2 6.2-7.3 2.3-2 4.9-3.7 7.7-5.1 2.9-1.3 6-2.2 9.4-2.7 3.3-0.5 7-0.7 10.9-0.4 0 0-0.1 8.9-0.4 17.8-0.3 8.8-0.7 17.5-0.7 17.5-4.4-0.8-7.7-1.1-10-0.7-2.3 0.4-4.2 1.4-5.9 3.1-1.1 1.1-1.8 2.9-2.3 5.3-0.7 3.9-0.1 6.9 2.1 9.3 1.1 1.2 2.6 2.3 4.7 3.3 2 1 4.5 1.9 7.5 2.6zm-49.1 36.1c0 0 1.5 0.5 4.1 1.4 1.4 0.4 3 1 4.8 1.6 1.8 0.6 3.9 1.3 6.1 2.1 2.3 0.7 4.7 1.6 7.3 2.4 2.6 0.9 5.3 1.8 8.1 2.8 2.9 1 5.8 1.9 8.7 2.9 3 1 6 2.1 9 3.1 3 1 6 2 9 3 2.9 1 5.8 2 8.6 3 2.9 0.9 5.6 1.8 8.2 2.7 2.6 0.9 5 1.7 7.2 2.5 2.3 0.7 4.4 1.4 6.2 2.1 1.8 0.6 3.4 1.1 4.7 1.6 2.7 0.9 4.2 1.4 4.2 1.4 0 0-2.8 9-5.6 18-3 8.8-6.1 17.6-6.1 17.6 0 0-1.1-0.4-3-1.2-2-0.8-4.7-1.9-8.1-3.2-1.6-0.7-3.4-1.4-5.4-2.2-1.9-0.8-3.9-1.6-6-2.4-2.1-0.9-4.2-1.7-6.4-2.6-2.2-0.9-4.4-1.8-6.6-2.7-2.3-0.9-4.5-1.7-6.7-2.6-2.2-0.9-4.3-1.8-6.4-2.6-2.1-0.8-4.1-1.7-6-2.4-1.9-0.8-3.7-1.5-5.4-2.2-3.3-1.3-6.1-2.4-8.1-3.2-1.9-0.8-3-1.2-3-1.2 0 0-1.1 3-2.8 7.5-1.7 4.4-4 10.4-6.3 16.2-2.5 5.9-4.9 11.6-6.8 15.9-2 4.3-3.3 7.1-3.3 7.1 0 0-1.4-0.7-3.5-1.7-2.1-1.1-4.9-2.5-7.7-3.9-2.8-1.4-5.6-2.8-7.7-3.9-2.1-1-3.5-1.7-3.5-1.7 0 0 2-4.5 5-11.2 1.5-3.4 3.2-7.4 4.9-11.7 1.8-4.4 3.6-9 5.4-13.7 1.7-4.7 3.4-9.5 5-13.9 1.6-4.5 3-8.8 4.1-12.4 2.3-7.4 3.8-12.3 3.8-12.3zm-30.9 80.8c0 0 1.5 0.7 3.9 2 1.3 0.7 2.8 1.4 4.5 2.3 1.7 0.9 3.7 1.9 5.8 3 2.1 1.1 4.5 2.3 6.9 3.6 2.4 1.2 5 2.5 7.7 3.9 2.6 1.4 5.4 2.8 8.2 4.2 2.7 1.5 5.6 2.9 8.4 4.4 2.8 1.5 5.7 2.9 8.5 4.4 2.8 1.4 5.5 2.8 8.2 4.2 2.6 1.4 5.2 2.7 7.6 3.9 2.5 1.3 4.8 2.5 6.9 3.6 2.1 1.1 4.1 2.1 5.8 3 1.7 0.9 3.2 1.6 4.5 2.3 2.5 1.3 3.9 2 3.9 2 0 0-1.3 2.6-3.2 6.6-2 4-4.6 9.2-7.3 14.4-2.7 5.1-5.5 10.2-7.6 14-2.1 3.8-3.6 6.3-3.6 6.3 0 0-3.8-1-9.7-2.6-2.9-0.9-6.2-1.8-9.9-2.9-1.8-0.5-3.6-1-5.5-1.6-1.9-0.5-3.8-1.1-5.8-1.7-1.9-0.5-3.8-1.1-5.7-1.7-1.9-0.6-3.7-1.1-5.5-1.7-3.6-1.1-7-2.2-9.8-3.1-5.7-1.8-9.5-3-9.5-3 0 0 2.7 2.9 6.8 7.4 2.1 2.2 4.4 4.8 7 7.6 1.3 1.4 2.6 2.9 3.9 4.4 1.3 1.5 2.7 3 4 4.5 1.4 1.5 2.7 3 4 4.5 1.3 1.5 2.6 3 3.9 4.4 2.5 2.9 4.8 5.6 6.8 7.9 4 4.6 6.6 7.7 6.6 7.7 0 0-1.6 2.4-3.9 5.9-2.4 3.5-5.6 8.2-8.8 12.8-3.3 4.6-6.6 9.1-9.1 12.5-2.6 3.3-4.3 5.6-4.3 5.6 0 0-1.2-1-3.4-2.7-1.1-0.9-2.5-2-4-3.2-1.6-1.2-3.3-2.5-5.2-4-1.9-1.5-3.9-3.1-6.1-4.7-2.2-1.7-4.5-3.5-6.8-5.4-2.4-1.8-4.9-3.7-7.3-5.7-2.5-1.9-5.1-3.9-7.6-5.8-2.5-2-5-4-7.5-5.9-2.5-1.9-5-3.8-7.3-5.7-2.4-1.8-4.7-3.6-6.9-5.3-2.1-1.7-4.2-3.3-6.1-4.8-1.9-1.5-3.6-2.8-5.1-4-1.6-1.2-2.9-2.2-4-3.1-2.2-1.7-3.5-2.7-3.5-2.7 0 0 3.6-4.7 7.1-9.5 3.5-4.8 6.9-9.7 6.9-9.7 0 0 1 0.7 2.8 1.9 1.7 1.3 4.2 3 7.2 5.2 1.4 1 3.1 2.2 4.8 3.4 1.7 1.2 3.5 2.5 5.3 3.9 1.9 1.3 3.8 2.7 5.8 4.1 1.9 1.4 3.9 2.8 5.9 4.2 2 1.4 4 2.8 5.9 4.2 2 1.4 3.9 2.8 5.8 4.1 1.8 1.4 3.6 2.7 5.3 3.9 1.7 1.2 3.3 2.4 4.8 3.4 3 2.1 5.5 3.9 7.2 5.2 1.8 1.2 2.8 1.9 2.8 1.9 0 0-0.8-1-2.3-2.7-1.4-1.7-3.4-4.1-5.8-7-1.3-1.5-2.6-3.1-4-4.7-1.4-1.7-2.9-3.4-4.4-5.2-1.6-1.8-3.2-3.7-4.8-5.6-1.6-1.9-3.3-3.8-4.9-5.7-1.7-1.9-3.4-3.8-5-5.7-1.6-1.8-3.3-3.7-4.8-5.4-1.6-1.8-3.1-3.5-4.6-5.1-1.5-1.6-2.8-3.1-4.1-4.5-2.6-2.8-4.7-5.1-6.2-6.8-1.5-1.6-2.3-2.5-2.3-2.5 0 0 2.9-4.6 5.8-9.3 2.8-4.6 5.6-9.4 5.6-9.4 0 0 1.2 0.4 3.3 1.1 2.1 0.6 5 1.6 8.6 2.7 1.8 0.6 3.7 1.2 5.8 1.8 2 0.6 4.2 1.3 6.5 2 2.2 0.6 4.5 1.3 6.9 2 2.3 0.7 4.7 1.4 7.1 2.1 2.4 0.7 4.9 1.4 7.2 2.1 2.4 0.6 4.7 1.3 7 1.9 2.3 0.6 4.5 1.2 6.5 1.8 2.1 0.5 4.1 1.1 5.9 1.5 3.6 1 6.7 1.8 8.8 2.3 2.1 0.6 3.3 0.9 3.3 0.9 0 0-1-0.6-2.9-1.7-1.8-1-4.5-2.5-7.6-4.4-1.6-0.9-3.3-1.8-5.2-2.9-1.8-1-3.7-2.1-5.7-3.3-2-1.1-4-2.3-6.1-3.4-2.1-1.2-4.2-2.4-6.3-3.6-2.1-1.3-4.2-2.5-6.3-3.7-2.1-1.1-4.1-2.3-6.1-3.4-2-1.2-3.9-2.3-5.7-3.3-1.9-1-3.6-2-5.2-2.9-3.1-1.8-5.8-3.4-7.6-4.4-1.9-1.1-2.9-1.7-2.9-1.7 0 0 2.8-5.4 5.7-10.9 2.7-5.6 5.4-11.2 5.4-11.2z"/><path class="c" d="m1181.6 1187.9c0 0 1.1 1.1 3 3.1 1 1 2.2 2.2 3.6 3.6 1.3 1.4 2.9 3 4.6 4.7 1.7 1.7 3.5 3.6 5.4 5.5 1.9 2 4 4.1 6.1 6.2 2.1 2.1 4.2 4.3 6.5 6.6 2.2 2.2 4.4 4.5 6.6 6.8 2.3 2.3 4.5 4.6 6.7 6.8 2.3 2.3 4.4 4.5 6.5 6.6 2.1 2.2 4.2 4.2 6.1 6.2 1.9 2 3.7 3.8 5.4 5.5 1.7 1.7 3.3 3.3 4.6 4.7 1.4 1.4 2.6 2.6 3.6 3.6 1.9 2 3 3.1 3 3.1 0 0-4 3.9-10.1 9.6-3.1 2.8-6.8 6.1-10.7 9.6-3.9 3.4-8.2 7-12.4 10.6-4.3 3.5-8.7 7-12.7 10.2-4.1 3.2-8 6.2-11.3 8.7-6.7 4.9-11.2 8.2-11.2 8.2 0 0-3.3-4.4-6.6-8.7-3.2-4.4-6.5-8.7-6.5-8.7 0 0 2.7-2 6.8-5 4-3 9.4-7.1 14.7-11.2 5.2-4.2 10.5-8.4 14.4-11.6 3.8-3.3 6.4-5.5 6.4-5.5 0 0-2.7-3-5.4-6.1-2.7-3-5.4-6-5.4-6 0 0-2.3 1.9-5.8 4.9-3.6 2.9-8.3 6.8-13 10.6-4.8 3.7-9.7 7.4-13.3 10.2-3.7 2.7-6.1 4.5-6.1 4.5 0 0-3.2-4.2-6.4-8.3-3.1-4.2-6.3-8.3-6.3-8.3 0 0 2.4-1.7 5.9-4.4 3.6-2.6 8.2-6.2 12.9-9.8 4.6-3.7 9.2-7.4 12.6-10.3 3.3-2.8 5.6-4.7 5.6-4.7 0 0-3.4-3.8-6.7-7.6-3.4-3.7-6.7-7.5-6.7-7.5 0 0-2.4 2.1-6.1 5.1-1.8 1.5-3.9 3.3-6.2 5.2-2.4 1.8-4.8 3.8-7.3 5.8-2.5 1.9-5 3.8-7.4 5.6-2.3 1.8-4.6 3.5-6.5 4.9-3.8 2.8-6.4 4.6-6.4 4.6 0 0-0.8-1.2-2.1-2.9-1.3-1.7-3.1-4-4.8-6.4-1.7-2.3-3.5-4.6-4.8-6.3-1.3-1.8-2.2-2.9-2.2-2.9 0 0 3.9-2.8 9.7-7.1 2.9-2.1 6.3-4.7 9.8-7.5 3.6-2.8 7.3-5.8 11-8.8 3.7-3.1 7.4-6.2 10.8-9.2 3.4-3 6.6-5.8 9.2-8.3 5.3-4.9 8.9-8.2 8.9-8.2zm-66.4 54c0 0 0.9 1.3 2.6 3.6 0.8 1.1 1.8 2.5 3 4 1.1 1.6 2.4 3.4 3.8 5.3 1.4 1.9 2.9 4 4.6 6.3 1.6 2.2 3.3 4.5 5 6.9 1.8 2.5 3.6 5 5.5 7.5 1.8 2.5 3.7 5.1 5.6 7.7 1.8 2.6 3.7 5.2 5.6 7.7 1.8 2.5 3.6 5 5.4 7.5 1.8 2.4 3.5 4.7 5.1 6.9 1.6 2.3 3.1 4.4 4.5 6.3 1.4 1.9 2.7 3.7 3.9 5.3 1.1 1.5 2.1 2.9 2.9 4 1.7 2.3 2.6 3.6 2.6 3.6 0 0-6.3 4.3-12.8 8.6-6.5 4.2-13 8.3-13 8.3 0 0-4.1-1.7-10.1-4.2-3.1-1.2-6.6-2.7-10.3-4.3-3.8-1.6-7.7-3.4-11.7-5.2-3.9-1.8-7.8-3.6-11.5-5.3-3.6-1.8-7-3.4-9.9-4.9-5.7-2.8-9.5-4.8-9.5-4.8 0 0 1.7 3.1 4.4 7.6 1.3 2.3 2.8 5 4.5 7.8 1.7 2.9 3.4 5.9 5.2 9 1.8 3 3.5 6.1 5.2 8.9 1.6 2.9 3.2 5.6 4.5 7.8 2.6 4.6 4.4 7.7 4.4 7.7 0 0-6.9 3.6-13.8 7.2-6.9 3.4-13.9 6.8-13.9 6.8 0 0-0.7-1.4-2-3.9-0.7-1.2-1.4-2.7-2.3-4.4-0.9-1.7-1.9-3.7-3-5.8-1.1-2.1-2.3-4.4-3.6-6.8-1.2-2.4-2.6-5-3.9-7.6-1.4-2.7-2.8-5.4-4.3-8.2-1.4-2.7-2.9-5.6-4.4-8.4-1.4-2.8-2.9-5.6-4.3-8.4-1.5-2.8-2.9-5.5-4.3-8.1-1.3-2.7-2.7-5.2-3.9-7.7-1.3-2.4-2.5-4.7-3.6-6.8-1.1-2.1-2.1-4.1-3-5.8-0.9-1.7-1.7-3.2-2.3-4.4-1.3-2.5-2-3.9-2-3.9 0 0 5.9-2.9 11.8-5.8 5.9-3.1 11.8-6.2 11.8-6.2 0 0 3.6 2.1 9.1 5 2.7 1.5 6 3.2 9.4 5 3.5 1.8 7.3 3.7 11 5.6 3.8 1.8 7.6 3.6 11.2 5.3 3.6 1.7 7 3.3 9.8 4.6 5.9 2.6 9.8 4.3 9.8 4.3 0 0-2-2.9-4.9-7.3-1.4-2.2-3.1-4.8-4.9-7.5-1.8-2.7-3.7-5.7-5.7-8.6-1.9-2.9-3.8-5.8-5.6-8.6-1.8-2.7-3.5-5.3-5-7.4-2.9-4.4-4.8-7.4-4.8-7.4 0 0 5.6-3.5 11.1-7 5.5-3.7 11-7.4 11-7.4zm-66.3 76.4c0 0-6.2 3.4-12.5 6.7-6.3 3.2-12.6 6.3-12.6 6.3-1.3-2.1-2.6-3.9-3.9-5.3-1.3-1.5-2.7-2.6-4.1-3.4-4.4-2.7-9.2-3-14.4-1-3.8 1.4-6.4 3.5-7.7 6.2-1.4 2.7-1.6 5.4-0.6 8 1 2.4 2.8 4.2 5.7 5.4 1.4 0.6 3.5 0.9 6.2 0.9 2.8 0.1 6.3-0.2 10.4-0.8 3.3-0.5 6.5-0.9 9.5-1.1 3-0.3 5.8-0.4 8.4-0.3 5.3 0 9.8 0.6 13.5 1.7 3.7 1.2 7 2.9 9.8 5.2 2.8 2.3 5.1 5.3 6.8 8.8 1.2 2.4 2 4.8 2.4 7.3 0.4 2.6 0.4 5.2 0 7.9-0.4 2.7-1.3 5.4-2.7 8-1.4 2.6-3.3 5.1-5.6 7.5-2.4 2.5-5.5 4.8-9.3 7.1-3.8 2.3-8.3 4.4-13.5 6.4-6.4 2.4-12.3 3.9-17.6 4.5-5.4 0.5-10.2 0.2-14.4-0.9-4.2-1.2-7.9-3.2-11.2-6.2-1.6-1.5-3.1-3.2-4.5-5.1-1.4-2-2.6-4.1-3.8-6.5 0 0 7-2.7 13.9-5.4 6.9-2.8 13.7-5.7 13.7-5.7 2.5 4 5.3 6.5 8.5 7.6 3.2 1 6.9 0.7 11.1-0.9 3.5-1.3 5.8-3.1 6.9-5.2 1.2-2.1 1.3-4.2 0.4-6.2-0.7-1.5-2-2.5-3.9-3.1-1.9-0.7-5.7-0.6-11.3 0.4-3.5 0.5-6.8 0.9-9.8 1.2-3 0.3-5.8 0.6-8.4 0.7-5.1 0.2-9.3 0-12.6-0.5-3.3-0.5-6.3-1.3-8.9-2.4-2.7-1.1-5-2.5-6.9-4.3-2-1.7-3.7-3.6-5.2-5.8-1.4-2.2-2.5-4.6-3.4-7.2-1-3.1-1.6-6.1-1.8-9.2-0.1-3.1 0.1-6.2 0.8-9.3 0.7-3 1.8-5.9 3.3-8.6 1.4-2.6 3.3-5.1 5.5-7.4 2.3-2.2 5-4.3 8.2-6.1 3.2-1.9 6.8-3.6 10.9-5.2 3.6-1.3 7-2.4 10.2-3.3 3.2-0.8 6.2-1.3 9-1.6 2.8-0.3 5.5-0.3 7.9 0 2.5 0.3 4.7 0.9 6.8 1.8 2.1 0.9 4.1 1.9 6.1 3.1 1.9 1.2 3.7 2.6 5.4 4.1 1.8 1.6 3.4 3.3 5 5.1 1.5 1.9 2.9 3.9 4.3 6.1zm-158 15.4c0 0 1.9 3.9 3.9 7.7 2 3.9 4 7.8 4 7.8 0 0 8.1-1.7 16.2-3.4 8-1.8 16-3.8 16-3.8 0 0 0-4.3 0-8.6-0.1-4.2-0.2-8.5-0.2-8.5 0 0 7-1.9 13.9-3.8 6.9-1.9 13.8-4 13.8-4 0 0 0 1.6 0 4.5 0 1.5 0 3.2-0.1 5.3 0 2 0 4.3-0.1 6.7 0 2.5-0.1 5.2-0.2 8.1 0 2.8-0.1 5.8-0.2 9-0.2 3.1-0.3 6.3-0.5 9.6-0.1 3.2-0.3 6.6-0.5 9.9-0.2 3.3-0.4 6.7-0.6 9.9-0.2 3.3-0.5 6.6-0.7 9.7-0.3 3.1-0.5 6.1-0.8 9-0.2 2.9-0.5 5.6-0.7 8.1-0.3 2.5-0.5 4.8-0.7 6.8-0.2 2.1-0.4 3.9-0.6 5.3-0.3 2.9-0.5 4.6-0.5 4.6 0 0-8.8 2.1-17.6 4.1-8.8 1.9-17.6 3.7-17.6 3.7 0 0-1-1.4-2.6-3.9-0.9-1.3-1.9-2.8-3-4.5-1.2-1.7-2.4-3.7-3.8-5.9-1.4-2.1-2.9-4.4-4.5-6.9-1.5-2.5-3.2-5.1-4.9-7.8-1.6-2.7-3.4-5.5-5.1-8.3-1.7-2.9-3.5-5.8-5.2-8.7-1.7-2.9-3.5-5.8-5.1-8.7-1.7-2.8-3.3-5.7-4.9-8.4-1.5-2.8-3-5.4-4.4-7.9-1.4-2.6-2.7-5-3.9-7.2-1.2-2.2-2.3-4.2-3.3-6-1-1.8-1.8-3.4-2.5-4.7-1.3-2.6-2.1-4-2.1-4 0 0 7.3-1.1 14.6-2.2 7.2-1.3 14.5-2.6 14.5-2.6zm39.6 30.9c0 0-5.2 1.2-10.4 2.4-5.2 1.1-10.5 2.2-10.5 2.2 0 0 1.2 2.1 2.9 5.2 0.9 1.6 2 3.4 3.1 5.3 1.1 2 2.3 4 3.5 6.1 1.2 2.1 2.4 4.1 3.5 6 1.2 2 2.2 3.8 3.1 5.3 1.9 3.1 3.1 5.1 3.1 5.1 0 0 0.2-2.3 0.4-5.8 0.1-1.8 0.2-3.9 0.3-6.1 0.1-2.2 0.2-4.5 0.3-6.9 0.1-2.3 0.2-4.7 0.3-6.9 0.1-2.2 0.2-4.3 0.2-6 0.2-3.5 0.2-5.9 0.2-5.9z"/><path class="d" d="m794.9 1344.2c0 0 0.1 1.6 0.2 4.3 0 1.4 0.1 3.1 0.2 5 0 1.9 0.1 4.1 0.2 6.4 0.1 2.4 0.2 4.9 0.3 7.6 0.1 2.7 0.2 5.6 0.3 8.5 0.1 3 0.2 6 0.4 9.1 0.1 3.1 0.2 6.3 0.3 9.4 0.1 3.1 0.2 6.3 0.4 9.4 0.1 3.1 0.2 6.1 0.3 9.1 0.1 2.9 0.2 5.8 0.3 8.5 0.1 2.7 0.2 5.2 0.3 7.6 0.1 2.3 0.2 4.5 0.3 6.4 0 1.9 0.1 3.6 0.1 5 0.1 2.7 0.2 4.3 0.2 4.3 0 0-8.3 0.2-16.6 0.4-8.3 0-16.6 0-16.6 0 0 0 0.1-2.4 0.1-6 0-1.7 0-3.8 0.1-6.1 0-2.2 0-4.6 0-6.9 0.1-2.4 0.1-4.8 0.1-7 0.1-2.2 0.1-4.3 0.1-6.1 0-3.6 0.1-6 0.1-6 0 0-2.1 2.4-5.3 5.9-1.6 1.8-3.4 3.8-5.4 6-2.1 2.2-4.3 4.5-6.4 6.8-2.3 2.3-4.5 4.6-6.6 6.7-2.1 2.2-4.1 4.2-5.8 5.9-3.4 3.4-5.7 5.6-5.7 5.6 0 0-2.8-0.1-6.9-0.4-4.1-0.3-9.6-0.7-15.1-1.1-5.5-0.5-11-1.1-15.1-1.5-4.1-0.4-6.8-0.8-6.8-0.8 0 0 2.7-2 6.7-5.2 2.1-1.5 4.4-3.4 6.9-5.4 2.5-2 5.1-4.1 7.7-6.3 2.6-2.1 5.2-4.3 7.6-6.3 2.4-2.1 4.6-4 6.5-5.6 3.7-3.3 6.2-5.6 6.2-5.6 0 0-2.1-4-5.2-10.1-1.6-3.1-3.3-6.7-5.2-10.5-0.9-1.9-1.9-3.9-2.8-5.9-1-2-1.9-4.1-2.9-6.1-0.9-2.1-1.8-4.1-2.8-6.2-0.9-2-1.7-4-2.6-5.9-1.7-3.9-3.2-7.5-4.5-10.6-2.5-6.2-4.2-10.3-4.2-10.3 0 0 2.2 0.2 5.4 0.6 3.2 0.3 7.6 0.8 11.9 1.2 4.3 0.3 8.6 0.7 11.9 0.9 3.2 0.3 5.4 0.4 5.4 0.4 0 0 1 2.7 2.6 6.6 0.8 2 1.7 4.3 2.7 6.8 1 2.5 2.1 5.2 3.2 7.8 1.1 2.6 2.2 5.3 3.3 7.8 1.1 2.4 2.1 4.7 2.9 6.7 1.8 4 3 6.6 3 6.6 0 0 4-4.1 8-8.2 3.9-4.1 7.8-8.3 7.8-8.3 0 0 0-1.5 0.1-3.8 0-2.3 0-5.4 0.1-8.5 0-3 0-6.1 0.1-8.4 0-2.3 0-3.9 0-3.9 0 0 7.1 0.1 14.1 0 7.1-0.1 14.1-0.3 14.1-0.3zm-99.3-4.3c0 0-0.2 1.5-0.5 4.2-0.2 1.4-0.5 3.1-0.7 5-0.3 1.9-0.6 4-0.9 6.3-0.3 2.4-0.7 4.9-1 7.6-0.4 2.7-0.8 5.5-1.2 8.4-0.4 3-0.8 6-1.2 9-0.4 3.1-0.9 6.2-1.3 9.4-0.4 3.1-0.9 6.2-1.3 9.3-0.4 3-0.8 6.1-1.2 9-0.4 2.9-0.8 5.7-1.2 8.4-0.3 2.7-0.7 5.2-1 7.6-0.3 2.3-0.6 4.5-0.9 6.4-0.2 1.9-0.5 3.5-0.7 4.9-0.3 2.7-0.5 4.3-0.5 4.3 0 0-8.3-1.1-16.5-2.2-8.2-1.3-16.3-2.6-16.3-2.6 0 0 0.4-2.1 1-5.4 0.3-1.6 0.6-3.5 1-5.6 0.4-2 0.8-4.2 1.2-6.3 0.4-2.2 0.8-4.4 1.2-6.4 0.4-2 0.7-3.9 1.1-5.5 0.6-3.3 1-5.5 1-5.5 0 0-8.5-1.4-16.9-3-8.4-1.7-16.8-3.5-16.8-3.5 0 0-0.5 2.2-1.3 5.4-0.4 1.6-0.8 3.5-1.3 5.5-0.5 2-1.1 4.2-1.6 6.3-0.5 2.2-1 4.3-1.5 6.3-0.5 2-1 3.9-1.3 5.5-0.8 3.2-1.4 5.4-1.4 5.4 0 0-8.1-1.8-16.1-3.8-8.1-2-16.1-4.1-16.1-4.1 0 0 0.4-1.5 1.2-4.1 0.4-1.3 0.9-3 1.4-4.8 0.6-1.8 1.2-3.9 1.8-6.2 0.7-2.3 1.4-4.7 2.2-7.3 0.8-2.6 1.6-5.4 2.4-8.2 0.9-2.9 1.8-5.8 2.6-8.8 0.9-3 1.8-6 2.7-9 0.9-3 1.8-6.1 2.7-9 0.9-3 1.8-6 2.6-8.8 0.8-2.8 1.6-5.6 2.4-8.2 0.8-2.6 1.5-5.1 2.2-7.3 0.7-2.3 1.3-4.4 1.8-6.2 0.6-1.9 1.1-3.5 1.4-4.8 0.8-2.7 1.3-4.2 1.3-4.2 0 0 6.8 1.8 13.7 3.5 6.8 1.6 13.7 3.2 13.7 3.2 0 0-0.6 2.5-1.5 6.2-0.4 1.8-1 4-1.5 6.3-0.6 2.4-1.2 4.8-1.8 7.3-0.6 2.5-1.2 5-1.8 7.3-0.5 2.3-1.1 4.5-1.5 6.4-0.9 3.7-1.5 6.2-1.5 6.2 0 0 8 1.7 16.1 3.3 8.1 1.5 16.2 2.9 16.2 2.9 0 0 0.5-2.5 1.2-6.3 0.4-1.8 0.8-4 1.2-6.4 0.5-2.3 0.9-4.8 1.4-7.3 0.5-2.5 0.9-5.1 1.4-7.4 0.4-2.3 0.8-4.5 1.2-6.4 0.7-3.8 1.2-6.3 1.2-6.3 0 0 6.9 1.1 13.9 2.2 6.9 1 13.9 1.9 13.9 1.9zm-108.7 29.4c-0.6 2-1.3 3.9-2 5.7-0.7 1.8-1.5 3.6-2.3 5.2-1.6 3.4-3.5 6.4-5.6 9.2-2.1 2.7-4.4 5.1-7 7.3-2.5 2.1-5.3 3.9-8.3 5.4-3.1 1.5-6.2 2.6-9.5 3.4-3.4 0.7-6.8 1.1-10.4 1.1-3.6 0.1-7.3-0.3-11.2-1-3.9-0.8-7.8-1.9-11.9-3.4-4.2-1.5-8-3.3-11.5-5.2-3.4-2-6.5-4.1-9.2-6.4-2.7-2.3-5-4.9-7-7.5-1.9-2.7-3.5-5.5-4.7-8.5-1.1-3-1.9-6.1-2.3-9.3-0.4-3.1-0.5-6.4-0.1-9.7 0.4-3.3 1.1-6.7 2.2-10.2 0.6-1.7 1.2-3.5 2-5.3 0.7-1.8 1.5-3.6 2.5-5.4 1.3-2.7 2.7-5.1 4.1-7.5 1.4-2.3 2.9-4.4 4.4-6.4 1.6-2 3.1-3.8 4.7-5.4 1.7-1.7 3.3-3.2 5-4.5 3.3-2.7 6.9-4.8 10.6-6.4 3.6-1.6 7.5-2.7 11.5-3.3 4-0.6 8.2-0.6 12.5 0 4.3 0.5 8.8 1.7 13.5 3.5 4.8 1.7 9.1 3.7 12.8 5.9 3.7 2.3 6.8 4.7 9.4 7.5 2.6 2.7 4.8 5.9 6.5 9.4 0.9 1.8 1.6 3.7 2.3 5.6 0.6 2 1.2 4.1 1.6 6.2 0.4 2.2 0.7 4.5 0.8 6.8 0.1 2.3 0.1 4.8-0.1 7.3-0.2 2.4-0.6 5-1.1 7.7-0.6 2.6-1.3 5.4-2.2 8.2zm-29.1-9.1c0.8-2.4 1.5-4.6 2.1-6.8 0.5-2.1 0.9-4.1 1.1-6 0.4-3.7 0.2-6.9-0.7-9.6-0.9-2.6-2.3-4.9-4.2-6.7-1.9-1.9-4.2-3.3-7.1-4.4-2.9-1.1-5.7-1.5-8.4-1.4-2.7 0.1-5.3 0.9-7.8 2.3-2.5 1.3-4.9 3.7-7.3 6.9-1.2 1.7-2.4 3.5-3.6 5.7-1.2 2.1-2.3 4.4-3.5 7-0.9 2.2-1.7 4.3-2.4 6.3-0.6 1.9-1 3.8-1.3 5.6-0.5 3.5-0.2 6.7 0.7 9.4 0.9 2.7 2.4 5.1 4.4 7.1 2.1 1.9 4.7 3.5 7.8 4.7 3.1 1.1 6 1.5 8.8 1.4 2.9-0.2 5.6-1.1 8.2-2.5 2.6-1.5 5-3.8 7.2-7 1.1-1.5 2.2-3.3 3.1-5.3 1-2 2-4.3 2.9-6.7zm-125.3-70.3c0 0-2.2 3.3-5.4 8.2-1.6 2.4-3.5 5.2-5.5 8.3-1 1.5-2 3.1-3.1 4.7-1 1.6-2.1 3.2-3.1 4.8-1.1 1.7-2.2 3.3-3.2 4.9-1.1 1.6-2.1 3.2-3.1 4.7-2 3-3.9 5.9-5.5 8.3-3.2 4.9-5.4 8.1-5.4 8.1 0 0-7-4.3-13.9-8.8-6.9-4.5-13.7-9.2-13.7-9.2 0 0 2.3-3 5.6-7.7 1.7-2.3 3.7-5 5.8-7.8 2.1-2.9 4.3-6 6.6-9.1 2.2-3 4.5-6.1 6.6-9 2.1-2.9 4.1-5.6 5.7-7.9 3.4-4.6 5.7-7.7 5.7-7.7 1.7-2.4 3.6-4.6 5.7-6.7 2.1-2.1 4.2-3.9 6.5-5.6 2.3-1.7 4.7-3.1 7.2-4.2 2.5-1.2 5.1-2.1 7.7-2.7 2.7-0.7 5.2-1.1 7.6-1.2 2.4-0.1 4.6 0 6.7 0.4 3 0.5 6 1.4 9.1 2.6 3.1 1.2 6.3 2.8 9.6 4.7 3.8 2.2 7.8 4.9 12 8.1 4.2 3 7.4 6.3 9.5 9.7 2.1 3.4 3.6 7.5 4.5 12.1 0.4 2.4 0.6 4.6 0.6 6.8 0 2.2-0.2 4.3-0.7 6.3-0.7 3.3-1.5 6.3-2.4 9-0.9 2.7-1.9 5.2-3.1 7.4 0 0-1.7 3.4-4.4 8.4-1.3 2.5-2.8 5.5-4.5 8.6-1.6 3.2-3.3 6.5-5.1 9.9-1.7 3.4-3.5 6.7-5.1 9.9-1.7 3.1-3.2 6.1-4.5 8.6-2.7 5-4.4 8.4-4.4 8.4 0 0-7.4-3.6-14.8-7.3-7.3-3.8-14.5-7.7-14.5-7.7 0 0 2-3.3 4.9-8.4 1.5-2.5 3.2-5.4 5-8.6 0.9-1.5 1.9-3.2 2.9-4.8 0.9-1.7 1.9-3.3 2.9-5 1-1.7 1.9-3.4 2.9-5 1-1.7 1.9-3.3 2.8-4.9 1.9-3.1 3.6-6.1 5.1-8.6 2.9-5 4.9-8.4 4.9-8.4 1.4-2.4 2.3-4.7 2.8-6.9 0.4-2.2 0.5-4.3 0-6.4-0.9-4.1-3.6-7.3-8-9.8-4.3-2.6-8.5-3.3-12.6-2.2-2.1 0.6-4 1.6-5.8 3-1.9 1.5-3.6 3.4-5.1 5.7zm-34.1-72.8c0 0 5.6 4.5 11.1 8.8 5.7 4.3 11.4 8.4 11.4 8.4 0 0-1 1.3-2.7 3.5-0.8 1.2-1.9 2.5-3 4-1.2 1.6-2.6 3.3-4 5.2-1.5 1.9-3 4-4.7 6.2-1.7 2.2-3.4 4.5-5.2 6.9-1.9 2.3-3.7 4.8-5.6 7.3-1.9 2.5-3.9 5-5.8 7.6-2 2.5-3.9 5.1-5.8 7.6-1.9 2.5-3.8 4.9-5.6 7.3-1.8 2.4-3.6 4.7-5.2 6.9-1.7 2.1-3.3 4.2-4.7 6.1-1.5 1.9-2.8 3.7-4 5.2-1.2 1.6-2.2 2.9-3.1 4-1.7 2.2-2.6 3.5-2.6 3.5 0 0-2.8-2-7-5.1-4.1-3.1-9.6-7.3-15-11.6-5.4-4.3-10.7-8.7-14.7-12-4-3.4-6.6-5.7-6.6-5.7-3.9-3.4-7.1-6.5-9.7-9.5-2.6-3-4.6-5.7-6-8.1-1.4-2.5-2.4-5-2.9-7.7-0.4-2.6-0.4-5.3 0-8.1 0.4-2.7 1.3-5.3 2.7-7.9 1.4-2.5 3.3-4.9 5.6-7.2 2-1.9 4.1-3.6 6.3-4.9 2.2-1.3 4.4-2.2 6.8-2.9 2.3-0.6 4.6-0.9 6.9-0.9 2.4-0.1 4.8 0.2 7.1 0.7 3.1 0.6 6.6 2.1 10.7 4.4-1.8-3.4-2.9-6.1-3.2-8.1-0.2-1.4-0.1-3.8 0.3-7.2 0.4-3.4 0.8-5.9 1.4-7.5 0 0 0.7-1.9 1.7-4.8 1-2.9 2.4-6.8 3.7-10.7 1.5-3.8 2.9-7.6 4-10.5 1.1-2.9 1.8-4.8 1.8-4.8 0 0 5.7 5.7 11.4 11.4 5.8 5.5 11.7 10.9 11.7 10.9 0 0-0.6 2.1-1.6 5.2-0.4 1.6-1 3.4-1.5 5.3-0.6 2-1.2 4.1-1.8 6.2-0.6 2-1.1 4.1-1.7 6.1-0.5 2-1 3.8-1.4 5.4-0.9 3.1-1.4 5.3-1.4 5.3-1.1 4.3-1.5 7.4-1.1 9.4 0.7 2.6 2 4.8 4.2 6.5 0 0 2 1.7 2 1.7 0 0 1.7-2 4.2-5 1.3-1.5 2.7-3.2 4.3-5.1 1.6-1.8 3.3-3.8 4.9-5.8 1.7-2 3.4-4 4.9-5.8 1.6-1.9 3.1-3.6 4.3-5.1 2.5-3 4.2-5 4.2-5zm-52.6 62.5c0 0 3.3-4 6.7-8 3.3-4 6.7-7.9 6.7-7.9 0 0-10.1-8.4-10.1-8.4-1.1-0.9-3.5-2.4-7.3-4.4-1.8-1-3.8-1.4-5.9-0.9-2.2 0.3-4 1.3-5.5 3-2.3 2.4-3.2 5-2.8 7.7 0.4 2.7 2.8 6 7.3 9.8 0 0 10.9 9.1 10.9 9.1zm4.6-106.5c0 0-1.1 1.1-3.2 3-1 0.9-2.2 2.1-3.6 3.5-1.4 1.3-3 2.8-4.8 4.5-1.7 1.6-3.6 3.4-5.6 5.3-2 1.9-4.1 3.9-6.3 6-2.2 2-4.4 4.2-6.7 6.3-2.3 2.2-4.6 4.4-7 6.6-2.3 2.2-4.6 4.4-6.9 6.6-2.3 2.1-4.5 4.3-6.7 6.3-2.2 2.1-4.3 4.1-6.3 6-2 1.9-3.9 3.7-5.6 5.3-1.8 1.7-3.4 3.2-4.8 4.5-1.4 1.4-2.6 2.5-3.7 3.5-2 1.9-3.2 3-3.2 3 0 0-5.7-6.1-11.5-12.3-5.6-6.3-11.1-12.7-11.1-12.7 0 0 1.2-1 3.3-2.8 1.1-1 2.4-2.1 3.8-3.3 1.5-1.3 3.2-2.7 5-4.3 1.8-1.6 3.8-3.3 5.9-5.1 2.1-1.7 4.3-3.6 6.6-5.6 2.3-1.9 4.6-4 7-6 2.4-2.1 4.8-4.2 7.3-6.2 2.4-2.1 4.8-4.2 7.2-6.3 2.4-2 4.8-4 7-6 2.3-1.9 4.5-3.8 6.6-5.6 2.1-1.8 4.1-3.5 5.9-5.1 1.8-1.5 3.5-3 5-4.2 1.5-1.3 2.7-2.4 3.8-3.3 2.1-1.9 3.4-2.9 3.4-2.9 0 0 4.7 5.4 9.5 10.8 4.8 5.3 9.7 10.5 9.7 10.5zm-28.1-31.9c0 0-1.2 1-3.4 2.8-1.1 0.8-2.4 1.9-3.9 3.2-1.5 1.2-3.2 2.6-5.1 4.1-1.9 1.5-3.9 3.2-6 4.9-2.1 1.8-4.4 3.6-6.7 5.5-2.3 1.9-4.7 3.9-7.2 5.9-2.4 2-4.9 4-7.4 6-2.4 2-4.9 4.1-7.4 6.1-2.4 1.9-4.8 3.9-7.1 5.8-2.4 1.9-4.6 3.8-6.7 5.5-2.2 1.7-4.2 3.4-6 4.9-1.9 1.5-3.6 2.9-5.1 4.2-1.5 1.2-2.8 2.3-3.9 3.2-2.2 1.7-3.4 2.7-3.4 2.7 0 0-2.5-3.1-6.2-7.7-1.9-2.4-4-5.2-6.3-8.1-2.2-3-4.6-6.3-7-9.5-2.3-3.2-4.7-6.5-6.8-9.6-2.2-3.1-4.2-6-5.8-8.5-3.4-5.1-5.6-8.5-5.6-8.5-2.9-4.5-5-8.9-6.1-13.1-1.2-4.2-1.4-8.2-0.8-12 0.6-3.8 1.8-7.1 3.7-9.9 1.9-2.8 4.4-5.1 7.4-7 2.6-1.6 5.3-2.6 8-3.1 2.7-0.4 5.5-0.4 8.3 0.2 3.8 0.7 7.7 2.8 11.7 6.1-1.3-3.7-1.9-7.1-2-10.3-0.1-3.2 0.3-6.1 1.3-8.7 1-2.7 2.4-5.1 4.3-7.2 1.8-2.2 4.2-4.1 7-5.7 2.3-1.4 4.6-2.4 6.9-3.1 2.4-0.7 4.8-1.1 7.2-1.1 2.4-0.1 4.7 0.2 6.9 0.7 2.3 0.5 4.4 1.4 6.5 2.5 2.6 1.3 5.5 3.9 8.7 7.8 4.3 5.2 7.1 8.6 8.3 10.4 0 0 1.8 2.6 4.4 6.6 1.4 1.9 2.9 4.2 4.6 6.6 1.7 2.5 3.6 5 5.4 7.5 1.9 2.6 3.8 5.1 5.5 7.4 1.8 2.4 3.5 4.5 4.9 6.4 2.9 3.6 4.9 6.1 4.9 6.1zm-83.5 25.2c0 0 3.9-2.9 7.8-5.8 3.9-2.9 7.8-5.7 7.8-5.7 0 0-8.1-11.6-8.1-11.6-2.8-4.2-5.5-6.6-7.9-7.3-2.6-0.8-5.2-0.2-7.8 1.6-2.5 1.6-3.9 3.8-4.1 6.5-0.3 2.6 1 6 3.8 10.2 0 0 8.5 12.1 8.5 12.1zm31.3-23.1c0 0 4.2-3.1 8.4-6.2 4.1-3 8.3-6.1 8.3-6.1 0 0-8.8-12.7-8.8-12.7-3-4.4-5.8-7-8.6-7.7-2.8-0.7-5.5-0.2-8.2 1.6-2.6 1.6-4 3.9-4.3 6.8-0.3 2.9 1 6.6 4.1 11.2 0 0 9.1 13.1 9.1 13.1zm-64.2-132c0 0 2 5.2 4.1 10.4 2 5.1 4.2 10.2 4.2 10.2 0 0-4.9 2.2-9.7 4.5-4.8 2.2-9.6 4.4-9.6 4.4 0 0-1.3-3-3.1-7.6-1.9-4.6-4.3-10.8-6.6-17-2.3-6.3-4.6-12.6-6.2-17.4-1.6-4.8-2.7-8-2.7-8 0 0 2.6-1 6.4-2.4 1.9-0.6 4.1-1.5 6.5-2.3 2.4-0.9 4.9-1.8 7.5-2.8 2.5-0.9 5.1-1.8 7.5-2.7 2.3-0.9 4.6-1.7 6.5-2.4 3.8-1.4 6.3-2.3 6.3-2.3 2.3 1.7 4.4 3.5 6.3 5.1 2 1.7 3.8 3.3 5.5 4.9 3.4 3.1 6.3 6.2 8.6 9.1 2.3 2.9 4.5 6.2 6.5 9.9 2.1 3.6 4 7.7 5.9 12.1 2.4 5.4 4.1 10.5 5.1 15.4 1.1 4.8 1.6 9.3 1.4 13.6-0.2 4.3-1 8.5-2.4 12.5-0.6 2.1-1.5 4.1-2.5 6-1 2-2.1 4-3.4 5.9-1.3 1.9-2.7 3.8-4.2 5.6-1.5 1.8-3.2 3.5-5 5.1-1.8 1.6-3.7 3.2-5.7 4.7-2 1.5-4.2 2.9-6.5 4.2-2.4 1.4-4.8 2.7-7.2 3.7-2.4 1-4.8 1.9-7.2 2.6-2.4 0.7-4.8 1.1-7.1 1.4-2.4 0.3-4.8 0.4-7.2 0.4-2.4-0.1-4.7-0.4-7-0.9-2.3-0.5-4.6-1.2-6.8-2.1-4.5-1.8-8.7-4.5-12.8-8-3.2-2.8-6.2-6.4-9.2-10.8-2.9-4.5-5.7-9.9-8.4-16.1-2.5-6-4.4-11.4-5.8-16.2-1.3-4.7-2-8.9-2.2-12.3-0.2-3.5 0-6.8 0.5-9.9 0.6-3.2 1.6-6.1 2.9-8.9 1.3-2.8 2.9-5.5 4.9-8 2.1-2.4 4.5-4.7 7.2-6.9 0 0 4 7.7 8.1 15.4 4.1 7.5 8.4 14.9 8.4 14.9-3 2.8-4.9 6.2-5.5 10.1-0.6 4 0.1 8.3 2.1 13.1 1.5 3.6 3.4 6.5 5.8 8.8 2.3 2.2 5 3.9 8.1 4.8 3.1 1 6.6 1.1 10.4 0.4 1.9-0.4 4-1 6.1-1.7 2.1-0.8 4.3-1.8 6.6-3 2.5-1.3 4.7-2.5 6.7-3.9 2-1.3 3.7-2.6 5.3-4 3-2.8 5.2-5.6 6.4-8.6 1.3-3 1.8-6.1 1.7-9.3-0.1-3.2-0.9-6.5-2.4-10-1.4-3.3-3.2-6.2-5.3-8.9-2.2-2.6-5.1-5.4-8.9-8.5 0 0-8.9 3.7-8.9 3.7zm5.2-120.4c0 0-3.8 2.2-7.7 4.4-3.8 2.2-7.6 4.5-7.6 4.5 0 0 1.8 9.7 3.8 19.3 2.2 9.5 4.4 18.9 4.4 18.9 0 0 4.3 0.1 8.7 0.2 4.3 0 8.6 0.1 8.6 0.1 0 0 2.2 8 4.4 16 2.4 7.9 4.8 15.7 4.8 15.7 0 0-1.7 0-4.6-0.1-1.5 0-3.3-0.1-5.3-0.1-2.1-0.1-4.4-0.2-6.9-0.3-2.5-0.1-5.2-0.2-8.1-0.4-2.9-0.2-6-0.3-9.2-0.5-3.1-0.2-6.4-0.5-9.7-0.7-3.3-0.3-6.7-0.6-10.1-0.9-3.4-0.3-6.7-0.6-10.1-1-3.3-0.3-6.6-0.7-9.8-1-3.1-0.4-6.2-0.8-9.1-1.2-2.9-0.3-5.7-0.7-8.2-1.1-2.6-0.3-4.9-0.7-7-1-2-0.3-3.8-0.5-5.3-0.8-3-0.4-4.7-0.7-4.7-0.7 0 0-2.5-10.3-4.8-20.7-2.1-10.5-4.2-21.1-4.2-21.1 0 0 1.4-1.1 3.9-3 1.2-1 2.7-2.1 4.4-3.4 1.8-1.3 3.7-2.8 5.8-4.3 2.2-1.6 4.5-3.3 6.9-5.1 2.5-1.8 5.1-3.7 7.8-5.6 2.6-1.9 5.4-3.9 8.3-5.9 2.8-2 5.7-3.9 8.6-5.9 2.9-2 5.8-4 8.6-5.9 2.9-1.9 5.7-3.7 8.4-5.5 2.8-1.8 5.4-3.5 7.9-5.1 2.6-1.6 5-3.2 7.2-4.5 2.2-1.4 4.2-2.7 6-3.8 1.8-1.1 3.4-2 4.7-2.8 2.5-1.6 4-2.5 4-2.5 0 0 1.2 9.1 2.4 18.1 1.4 8.8 2.8 17.7 2.8 17.7zm-29.9 45.8c0 0-1.4-6.1-2.8-12.3-1.3-6.2-2.6-12.5-2.6-12.5 0 0-2 1.3-5.1 3.3-1.6 1-3.3 2.1-5.3 3.4-1.9 1.2-3.9 2.5-6 3.9-2 1.3-4.1 2.7-6 4-1.9 1.2-3.7 2.4-5.2 3.5-3 2-5.1 3.4-5.1 3.4 0 0 2.4 0.3 6 0.6 1.8 0.2 3.9 0.4 6.1 0.6 2.2 0.2 4.6 0.5 7 0.7 2.3 0.2 4.7 0.4 7 0.5 2.2 0.2 4.3 0.4 6 0.5 3.6 0.2 6 0.4 6 0.4z"/><path class="e" d="m139 818c-25.4 0-46-20.6-46-46 0-25.4 20.6-46 46-46 25.4 0 46 20.6 46 46 0 25.4-20.6 46-46 46z"/><path class="e" d="m1405 818c-25.4 0-46-20.6-46-46 0-25.4 20.6-46 46-46 25.4 0 46 20.6 46 46 0 25.4-20.6 46-46 46z"/><path class="a" d=""/><path class="b" d="m174.8 622.5c0 0-3.8-1-9.5-2.4-2.8-0.7-6.1-1.5-9.7-2.4-1.7-0.5-3.6-0.9-5.4-1.4-1.9-0.5-3.8-0.9-5.7-1.4-1.9-0.5-3.8-1-5.6-1.4-1.9-0.5-3.7-1-5.5-1.4-3.5-0.9-6.9-1.7-9.7-2.4-5.7-1.4-9.5-2.4-9.5-2.4 0 0 2.1-9.6 4.3-19.1 2.4-9.4 4.8-18.7 4.8-18.7 0 0 3.3 1 8.2 2.6 2.5 0.7 5.4 1.6 8.5 2.6 3 1 6.3 2 9.6 3 3.3 1 6.6 2.1 9.7 3 3.1 1 6 1.9 8.4 2.7 5 1.5 8.2 2.5 8.2 2.5 2.8 0.9 5.4 1.8 7.8 2.7 2.4 0.9 4.6 1.8 6.6 2.7 2 0.9 3.9 1.9 5.6 2.8 1.6 1 3.1 2 4.4 2.9 2.6 2 4.9 4.4 6.8 7.3 1.9 2.8 3.5 6.1 4.7 9.9 1.3 3.8 1.9 7.8 2 12.2 0.2 4.4-0.3 9.1-1.3 14.2-1 5.4-2.3 10.1-3.7 14.2-1.4 4.1-3 7.6-4.8 10.4-1.8 2.8-3.9 5.2-6.2 7.3-2.3 2-4.9 3.7-7.7 5.1-2.9 1.3-6 2.2-9.4 2.7-3.3 0.5-7 0.7-10.9 0.4 0 0 0.1-8.9 0.4-17.8 0.3-8.8 0.7-17.5 0.7-17.5 4.4 0.8 7.7 1.1 10 0.7 2.3-0.4 4.2-1.4 5.9-3.1 1.1-1.1 1.8-2.9 2.3-5.3 0.7-3.9 0.1-6.9-2.1-9.3-1.1-1.2-2.6-2.3-4.7-3.3-2-1-4.5-1.9-7.5-2.6zm49.1-36.1c0 0-1.5-0.5-4.1-1.4-1.4-0.4-3-1-4.8-1.6-1.8-0.6-3.9-1.3-6.1-2.1-2.3-0.7-4.7-1.6-7.3-2.4-2.6-0.9-5.3-1.8-8.1-2.8-2.9-1-5.8-1.9-8.7-2.9-3-1-6-2.1-9-3.1-3-1-6-2-9-3-2.9-1-5.8-2-8.6-3-2.9-0.9-5.6-1.8-8.2-2.7-2.6-0.9-5-1.7-7.2-2.5-2.3-0.7-4.4-1.4-6.2-2.1-1.8-0.6-3.4-1.1-4.7-1.6-2.7-0.9-4.2-1.4-4.2-1.4 0 0 2.8-9 5.6-18 3-8.8 6.1-17.6 6.1-17.6 0 0 1.1 0.4 3 1.2 2 0.8 4.7 1.9 8.1 3.2 1.6 0.7 3.4 1.4 5.4 2.2 1.9 0.8 3.9 1.6 6 2.4 2.1 0.9 4.2 1.7 6.4 2.6 2.2 0.9 4.4 1.8 6.6 2.7 2.3 0.9 4.5 1.7 6.7 2.6 2.2 0.9 4.3 1.8 6.4 2.6 2.1 0.8 4.1 1.7 6 2.4 1.9 0.8 3.7 1.5 5.4 2.2 3.3 1.3 6.1 2.4 8.1 3.2 1.9 0.8 3 1.2 3 1.2 0 0 1.1-3 2.8-7.5 1.7-4.4 4-10.4 6.3-16.2 2.5-5.9 4.9-11.6 6.8-15.9 2-4.3 3.3-7.1 3.3-7.1 0 0 1.4 0.7 3.5 1.7 2.1 1.1 4.9 2.5 7.7 3.9 2.8 1.4 5.6 2.8 7.7 3.9 2.1 1 3.5 1.7 3.5 1.7 0 0-2 4.5-5 11.2-1.5 3.4-3.2 7.4-4.9 11.7-1.8 4.4-3.6 9-5.4 13.7-1.7 4.7-3.4 9.5-5 13.9-1.6 4.5-3 8.8-4.1 12.4-2.3 7.4-3.8 12.3-3.8 12.3zm30.9-80.8c0 0-1.5-0.7-3.9-2-1.3-0.7-2.8-1.4-4.5-2.3-1.7-0.9-3.7-1.9-5.8-3-2.1-1.1-4.5-2.3-6.9-3.6-2.4-1.2-5-2.5-7.7-3.9-2.6-1.4-5.4-2.8-8.2-4.2-2.7-1.5-5.6-2.9-8.4-4.4-2.8-1.5-5.7-2.9-8.5-4.4-2.8-1.4-5.5-2.8-8.2-4.2-2.6-1.4-5.2-2.7-7.6-3.9-2.5-1.3-4.8-2.5-6.9-3.6-2.1-1.1-4.1-2.1-5.8-3-1.7-0.9-3.2-1.6-4.5-2.3-2.5-1.3-3.9-2-3.9-2 0 0 1.3-2.6 3.2-6.6 2-4 4.6-9.2 7.3-14.4 2.7-5.1 5.5-10.2 7.6-14 2.1-3.8 3.6-6.3 3.6-6.3 0 0 3.8 1 9.7 2.6 2.9 0.9 6.2 1.8 9.9 2.9 1.8 0.5 3.6 1 5.5 1.6 1.9 0.5 3.8 1.1 5.8 1.7 1.9 0.5 3.8 1.1 5.7 1.7 1.9 0.6 3.7 1.1 5.5 1.7 3.6 1.1 7 2.2 9.8 3.1 5.7 1.8 9.5 3 9.5 3 0 0-2.7-2.9-6.8-7.4-2.1-2.2-4.4-4.8-7-7.6-1.3-1.4-2.6-2.9-3.9-4.4-1.3-1.5-2.7-3-4-4.5-1.4-1.5-2.7-3-4-4.5-1.3-1.5-2.6-3-3.9-4.4-2.5-2.9-4.8-5.6-6.8-7.9-4-4.6-6.6-7.7-6.6-7.7 0 0 1.6-2.4 3.9-5.9 2.4-3.5 5.6-8.2 8.8-12.8 3.3-4.6 6.6-9.1 9.1-12.5 2.6-3.3 4.3-5.6 4.3-5.6 0 0 1.2 1 3.4 2.7 1.1 0.9 2.5 2 4 3.2 1.6 1.2 3.3 2.5 5.2 4 1.9 1.5 3.9 3.1 6.1 4.7 2.2 1.7 4.5 3.5 6.8 5.4 2.4 1.8 4.9 3.7 7.3 5.7 2.5 1.9 5.1 3.9 7.6 5.8 2.5 2 5 4 7.5 5.9 2.5 1.9 5 3.8 7.3 5.7 2.4 1.8 4.7 3.6 6.9 5.3 2.1 1.7 4.2 3.3 6.1 4.8 1.9 1.5 3.6 2.8 5.1 4 1.6 1.2 2.9 2.2 4 3.1 2.2 1.7 3.5 2.7 3.5 2.7 0 0-3.6 4.7-7.1 9.5-3.5 4.8-6.9 9.7-6.9 9.7 0 0-1-0.7-2.8-1.9-1.7-1.3-4.2-3-7.2-5.2-1.4-1-3.1-2.2-4.8-3.4-1.7-1.2-3.5-2.5-5.3-3.9-1.9-1.3-3.8-2.7-5.8-4.1-1.9-1.4-3.9-2.8-5.9-4.2-2-1.4-4-2.8-5.9-4.2-2-1.4-3.9-2.8-5.8-4.1-1.8-1.4-3.6-2.7-5.3-3.9-1.7-1.2-3.3-2.4-4.8-3.4-3-2.1-5.5-3.9-7.2-5.2-1.8-1.2-2.8-1.9-2.8-1.9 0 0 0.8 1 2.3 2.7 1.4 1.7 3.4 4.1 5.8 7 1.3 1.5 2.6 3.1 4 4.7 1.4 1.7 2.9 3.4 4.4 5.2 1.6 1.8 3.2 3.7 4.8 5.6 1.6 1.9 3.3 3.8 4.9 5.7 1.7 1.9 3.4 3.8 5 5.7 1.6 1.8 3.3 3.7 4.8 5.4 1.6 1.8 3.1 3.5 4.6 5.1 1.5 1.6 2.8 3.1 4.1 4.5 2.6 2.8 4.7 5.1 6.2 6.8 1.5 1.6 2.3 2.5 2.3 2.5 0 0-2.9 4.6-5.8 9.3-2.8 4.6-5.6 9.4-5.6 9.4 0 0-1.2-0.4-3.3-1.1-2.1-0.6-5-1.6-8.6-2.7-1.8-0.6-3.7-1.2-5.8-1.8-2-0.6-4.2-1.3-6.5-2-2.2-0.6-4.5-1.3-6.9-2-2.3-0.7-4.7-1.4-7.1-2.1-2.4-0.7-4.9-1.4-7.2-2.1-2.4-0.6-4.7-1.3-7-1.9-2.3-0.6-4.5-1.2-6.5-1.8-2.1-0.5-4.1-1.1-5.9-1.5-3.6-1-6.7-1.8-8.8-2.3-2.1-0.6-3.3-0.9-3.3-0.9 0 0 1 0.6 2.9 1.7 1.8 1 4.5 2.5 7.6 4.4 1.6 0.9 3.3 1.8 5.2 2.9 1.8 1 3.7 2.1 5.7 3.3 2 1.1 4 2.3 6.1 3.4 2.1 1.2 4.2 2.4 6.3 3.6 2.1 1.3 4.2 2.5 6.3 3.7 2.1 1.1 4.1 2.3 6.1 3.4 2 1.2 3.9 2.3 5.7 3.3 1.9 1 3.6 2 5.2 2.9 3.1 1.8 5.8 3.4 7.6 4.4 1.9 1.1 2.9 1.7 2.9 1.7 0 0-2.8 5.4-5.7 10.9-2.7 5.6-5.4 11.2-5.4 11.2z"/><path class="c" d="m362.4 356.1c0 0-1.1-1.1-3-3.1-1-1-2.2-2.2-3.6-3.6-1.3-1.4-2.9-3-4.6-4.7-1.7-1.7-3.5-3.6-5.4-5.5-1.9-2-4-4.1-6.1-6.2-2.1-2.1-4.2-4.3-6.5-6.6-2.2-2.2-4.4-4.5-6.6-6.8-2.3-2.3-4.5-4.6-6.7-6.8-2.3-2.3-4.4-4.5-6.5-6.6-2.1-2.2-4.2-4.2-6.1-6.2-1.9-2-3.7-3.8-5.4-5.5-1.7-1.7-3.3-3.3-4.6-4.7-1.4-1.4-2.6-2.6-3.6-3.6-1.9-2-3-3.1-3-3.1 0 0 4-3.9 10.1-9.6 3.1-2.8 6.8-6.1 10.7-9.6 3.9-3.4 8.2-7 12.4-10.6 4.3-3.5 8.7-7 12.7-10.2 4.1-3.2 8-6.2 11.3-8.7 6.7-4.9 11.2-8.2 11.2-8.2 0 0 3.3 4.4 6.6 8.7 3.2 4.4 6.5 8.7 6.5 8.7 0 0-2.7 2-6.8 5-4 3-9.4 7.1-14.7 11.2-5.2 4.2-10.5 8.4-14.4 11.6-3.8 3.3-6.4 5.5-6.4 5.5 0 0 2.7 3 5.4 6.1 2.7 3 5.4 6 5.4 6 0 0 2.3-1.9 5.8-4.9 3.6-2.9 8.3-6.8 13-10.6 4.8-3.7 9.7-7.4 13.3-10.2 3.7-2.7 6.1-4.5 6.1-4.5 0 0 3.2 4.2 6.4 8.3 3.1 4.2 6.3 8.3 6.3 8.3 0 0-2.4 1.7-5.9 4.4-3.6 2.6-8.2 6.2-12.9 9.8-4.6 3.7-9.2 7.4-12.6 10.3-3.3 2.8-5.6 4.7-5.6 4.7 0 0 3.4 3.8 6.7 7.6 3.4 3.7 6.7 7.5 6.7 7.5 0 0 2.4-2.1 6.1-5.1 1.8-1.5 3.9-3.3 6.2-5.2 2.4-1.8 4.8-3.8 7.3-5.8 2.5-1.9 5-3.8 7.4-5.6 2.3-1.8 4.6-3.5 6.5-4.9 3.8-2.8 6.4-4.6 6.4-4.6 0 0 0.8 1.2 2.1 2.9 1.3 1.7 3.1 4 4.8 6.4 1.7 2.3 3.5 4.6 4.8 6.3 1.3 1.8 2.2 2.9 2.2 2.9 0 0-3.9 2.8-9.7 7.1-2.9 2.1-6.3 4.7-9.8 7.5-3.6 2.8-7.3 5.8-11 8.8-3.7 3.1-7.4 6.2-10.8 9.2-3.4 3-6.6 5.8-9.2 8.3-5.3 4.9-8.9 8.2-8.9 8.2zm66.4-54c0 0-0.9-1.3-2.6-3.6-0.8-1.1-1.8-2.5-3-4-1.1-1.6-2.4-3.4-3.8-5.3-1.4-1.9-2.9-4-4.6-6.3-1.6-2.2-3.3-4.5-5-6.9-1.8-2.5-3.6-5-5.5-7.5-1.8-2.5-3.7-5.1-5.6-7.7-1.8-2.6-3.7-5.2-5.6-7.7-1.8-2.5-3.6-5-5.4-7.5-1.8-2.4-3.5-4.7-5.1-6.9-1.6-2.3-3.1-4.4-4.5-6.3-1.4-1.9-2.7-3.7-3.9-5.3-1.1-1.5-2.1-2.9-2.9-4-1.7-2.3-2.6-3.6-2.6-3.6 0 0 6.3-4.3 12.8-8.6 6.5-4.2 13-8.3 13-8.3 0 0 4.1 1.7 10.1 4.2 3.1 1.2 6.6 2.7 10.3 4.3 3.8 1.6 7.7 3.4 11.7 5.2 3.9 1.8 7.8 3.6 11.5 5.3 3.6 1.8 7 3.4 9.9 4.9 5.7 2.8 9.5 4.8 9.5 4.8 0 0-1.7-3.1-4.4-7.6-1.3-2.3-2.8-5-4.5-7.8-1.7-2.9-3.4-5.9-5.2-9-1.8-3-3.5-6.1-5.2-8.9-1.6-2.9-3.2-5.6-4.5-7.8-2.6-4.6-4.4-7.7-4.4-7.7 0 0 6.9-3.6 13.8-7.2 6.9-3.4 13.9-6.8 13.9-6.8 0 0 0.7 1.4 2 3.9 0.7 1.2 1.4 2.7 2.3 4.4 0.9 1.7 1.9 3.7 3 5.8 1.1 2.1 2.3 4.4 3.6 6.8 1.2 2.4 2.6 5 3.9 7.6 1.4 2.7 2.8 5.4 4.3 8.2 1.4 2.7 2.9 5.6 4.4 8.4 1.4 2.8 2.9 5.6 4.3 8.4 1.5 2.8 2.9 5.5 4.3 8.1 1.3 2.7 2.7 5.2 3.9 7.7 1.3 2.4 2.5 4.7 3.6 6.8 1.1 2.1 2.1 4.1 3 5.8 0.9 1.7 1.7 3.2 2.3 4.4 1.3 2.5 2 3.9 2 3.9 0 0-5.9 2.9-11.8 5.8-5.9 3.1-11.8 6.2-11.8 6.2 0 0-3.6-2.1-9.1-5-2.7-1.5-6-3.2-9.4-5-3.5-1.8-7.3-3.7-11-5.6-3.8-1.8-7.6-3.6-11.2-5.3-3.6-1.7-7-3.3-9.8-4.6-5.9-2.6-9.8-4.3-9.8-4.3 0 0 2 2.9 4.9 7.3 1.4 2.2 3.1 4.8 4.9 7.5 1.8 2.7 3.7 5.7 5.7 8.6 1.9 2.9 3.8 5.8 5.6 8.6 1.8 2.7 3.5 5.3 5 7.4 2.9 4.4 4.8 7.4 4.8 7.4 0 0-5.6 3.5-11.1 7-5.5 3.7-11 7.4-11 7.4zm66.3-76.4c0 0 6.2-3.4 12.5-6.7 6.3-3.2 12.6-6.3 12.6-6.3 1.3 2.1 2.6 3.9 3.9 5.3 1.3 1.5 2.7 2.6 4.1 3.4 4.4 2.7 9.2 3 14.4 1 3.8-1.4 6.4-3.5 7.7-6.2 1.4-2.7 1.6-5.4 0.6-8-1-2.4-2.8-4.2-5.7-5.4-1.4-0.6-3.5-0.9-6.2-0.9-2.8-0.1-6.3 0.2-10.4 0.8-3.3 0.5-6.5 0.9-9.5 1.1-3 0.3-5.8 0.4-8.4 0.3-5.3 0-9.8-0.6-13.5-1.7-3.7-1.2-7-2.9-9.8-5.2-2.8-2.3-5.1-5.3-6.8-8.8-1.2-2.4-2-4.8-2.4-7.3-0.4-2.6-0.4-5.2 0-7.9 0.4-2.7 1.3-5.4 2.7-8 1.4-2.6 3.3-5.1 5.6-7.5 2.4-2.5 5.5-4.8 9.3-7.1 3.8-2.3 8.3-4.4 13.5-6.4 6.4-2.4 12.3-3.9 17.6-4.5 5.4-0.5 10.2-0.2 14.4 0.9 4.2 1.2 7.9 3.2 11.2 6.2 1.6 1.5 3.1 3.2 4.5 5.1 1.4 2 2.6 4.1 3.8 6.5 0 0-7 2.7-13.9 5.4-6.9 2.8-13.7 5.7-13.7 5.7-2.5-4-5.3-6.5-8.5-7.6-3.2-1-6.9-0.7-11.1 0.9-3.5 1.3-5.8 3.1-6.9 5.2-1.2 2.1-1.3 4.2-0.4 6.2 0.7 1.5 2 2.5 3.9 3.1 1.9 0.7 5.7 0.6 11.3-0.4 3.5-0.5 6.8-0.9 9.8-1.2 3-0.3 5.8-0.6 8.4-0.7 5.1-0.2 9.3 0 12.6 0.5 3.3 0.5 6.3 1.3 8.9 2.4 2.7 1.1 5 2.5 6.9 4.3 2 1.7 3.7 3.6 5.2 5.8 1.4 2.2 2.5 4.6 3.4 7.2 1 3.1 1.6 6.1 1.8 9.2 0.1 3.1-0.1 6.2-0.8 9.3-0.7 3-1.8 5.9-3.3 8.6-1.4 2.6-3.3 5.1-5.5 7.4-2.3 2.2-5 4.3-8.2 6.1-3.2 1.9-6.8 3.6-10.9 5.2-3.6 1.3-7 2.4-10.2 3.3-3.2 0.8-6.2 1.3-9 1.6-2.8 0.3-5.5 0.3-7.9 0-2.5-0.3-4.7-0.9-6.8-1.8-2.1-0.9-4.1-1.9-6.1-3.1-1.9-1.2-3.7-2.6-5.4-4.1-1.8-1.6-3.4-3.3-5-5.1-1.5-1.9-2.9-3.9-4.3-6.1zm158-15.4c0 0-1.9-3.9-3.9-7.7-2-3.9-4-7.8-4-7.8 0 0-8.1 1.7-16.2 3.4-8 1.8-16 3.8-16 3.8 0 0 0 4.3 0 8.6 0.1 4.2 0.2 8.5 0.2 8.5 0 0-7 1.9-13.9 3.8-6.9 1.9-13.8 4-13.8 4 0 0 0-1.6 0-4.5 0-1.5 0-3.2 0.1-5.3 0-2 0-4.3 0.1-6.7 0-2.5 0.1-5.2 0.2-8.1 0-2.8 0.1-5.8 0.2-9 0.2-3.1 0.3-6.3 0.5-9.6 0.1-3.2 0.3-6.6 0.5-9.9 0.2-3.3 0.4-6.7 0.6-9.9 0.2-3.3 0.5-6.6 0.7-9.7 0.3-3.1 0.5-6.1 0.8-9 0.2-2.9 0.5-5.6 0.7-8.1 0.3-2.5 0.5-4.8 0.7-6.8 0.2-2.1 0.4-3.9 0.6-5.3 0.3-2.9 0.5-4.6 0.5-4.6 0 0 8.8-2.1 17.6-4.1 8.8-1.9 17.6-3.7 17.6-3.7 0 0 1 1.4 2.6 3.9 0.9 1.3 1.9 2.8 3 4.5 1.2 1.7 2.4 3.7 3.8 5.9 1.4 2.1 2.9 4.4 4.5 6.9 1.5 2.5 3.2 5.1 4.9 7.8 1.6 2.7 3.4 5.5 5.1 8.3 1.7 2.9 3.5 5.8 5.2 8.7 1.7 2.9 3.5 5.8 5.1 8.7 1.7 2.8 3.3 5.7 4.9 8.4 1.5 2.8 3 5.4 4.4 7.9 1.4 2.6 2.7 5 3.9 7.2 1.2 2.2 2.3 4.2 3.3 6 1 1.8 1.8 3.4 2.5 4.7 1.3 2.6 2.1 4 2.1 4 0 0-7.3 1.1-14.6 2.2-7.2 1.3-14.5 2.6-14.5 2.6zm-39.6-30.9c0 0 5.2-1.2 10.4-2.4 5.2-1.1 10.5-2.2 10.5-2.2 0 0-1.2-2.1-2.9-5.2-0.9-1.6-2-3.4-3.1-5.3-1.1-2-2.3-4-3.5-6.1-1.2-2.1-2.4-4.1-3.5-6-1.2-2-2.2-3.8-3.1-5.3-1.9-3.1-3.1-5.1-3.1-5.1 0 0-0.2 2.3-0.4 5.8-0.1 1.8-0.2 3.9-0.3 6.1-0.1 2.2-0.2 4.5-0.3 6.9-0.1 2.3-0.2 4.7-0.3 6.9-0.1 2.2-0.2 4.3-0.2 6-0.2 3.5-0.2 5.9-0.2 5.9z"/><path class="d" d="m749.1 199.8c0 0-0.1-1.6-0.2-4.3 0-1.4-0.1-3.1-0.2-5 0-1.9-0.1-4.1-0.2-6.4-0.1-2.4-0.2-4.9-0.3-7.6-0.1-2.7-0.2-5.6-0.3-8.5-0.1-3-0.2-6-0.4-9.1-0.1-3.1-0.2-6.3-0.3-9.4-0.1-3.1-0.2-6.3-0.4-9.4-0.1-3.1-0.2-6.1-0.3-9.1-0.1-2.9-0.2-5.8-0.3-8.5-0.1-2.7-0.2-5.2-0.3-7.6-0.1-2.3-0.2-4.5-0.3-6.4 0-1.9-0.1-3.6-0.1-5-0.1-2.7-0.2-4.3-0.2-4.3 0 0 8.3-0.2 16.6-0.4 8.3 0 16.6 0 16.6 0 0 0-0.1 2.4-0.1 6 0 1.7 0 3.8-0.1 6.1 0 2.2 0 4.6 0 6.9-0.1 2.4-0.1 4.8-0.1 7-0.1 2.2-0.1 4.3-0.1 6.1 0 3.6-0.1 6-0.1 6 0 0 2.1-2.4 5.3-5.9 1.6-1.8 3.4-3.8 5.4-6 2.1-2.2 4.3-4.5 6.4-6.8 2.3-2.3 4.5-4.6 6.6-6.7 2.1-2.2 4.1-4.2 5.8-5.9 3.4-3.4 5.7-5.6 5.7-5.6 0 0 2.8 0.1 6.9 0.4 4.1 0.3 9.6 0.7 15.1 1.1 5.5 0.5 11 1.1 15.1 1.5 4.1 0.4 6.8 0.8 6.8 0.8 0 0-2.7 2-6.7 5.2-2.1 1.5-4.4 3.4-6.9 5.4-2.5 2-5.1 4.1-7.7 6.3-2.6 2.1-5.2 4.3-7.6 6.3-2.4 2.1-4.6 4-6.5 5.6-3.7 3.3-6.2 5.6-6.2 5.6 0 0 2.1 4 5.2 10.1 1.6 3.1 3.3 6.7 5.2 10.5 0.9 1.9 1.9 3.9 2.8 5.9 1 2 1.9 4.1 2.9 6.1 0.9 2.1 1.8 4.1 2.8 6.2 0.9 2 1.7 4 2.6 5.9 1.7 3.9 3.2 7.5 4.5 10.6 2.5 6.2 4.2 10.3 4.2 10.3 0 0-2.2-0.2-5.4-0.6-3.2-0.3-7.6-0.8-11.9-1.2-4.3-0.3-8.6-0.7-11.9-0.9-3.2-0.3-5.4-0.4-5.4-0.4 0 0-1-2.7-2.6-6.6-0.8-2-1.7-4.3-2.7-6.8-1-2.5-2.1-5.2-3.2-7.8-1.1-2.6-2.2-5.3-3.3-7.8-1.1-2.4-2.1-4.7-2.9-6.7-1.8-4-3-6.6-3-6.6 0 0-4 4.1-8 8.2-3.9 4.1-7.8 8.3-7.8 8.3 0 0 0 1.5-0.1 3.8 0 2.3 0 5.4-0.1 8.5 0 3 0 6.1-0.1 8.4 0 2.3 0 3.9 0 3.9 0 0-7.1-0.1-14.1 0-7.1 0.1-14.1 0.3-14.1 0.3zm99.3 4.3c0 0 0.2-1.5 0.5-4.2 0.2-1.4 0.5-3.1 0.7-5 0.3-1.9 0.6-4 0.9-6.3 0.3-2.4 0.7-4.9 1-7.6 0.4-2.7 0.8-5.5 1.2-8.4 0.4-3 0.8-6 1.2-9 0.4-3.1 0.9-6.2 1.3-9.4 0.4-3.1 0.9-6.2 1.3-9.3 0.4-3 0.8-6.1 1.2-9 0.4-2.9 0.8-5.7 1.2-8.4 0.3-2.7 0.7-5.2 1-7.6 0.3-2.3 0.6-4.5 0.9-6.4 0.2-1.9 0.5-3.5 0.7-4.9 0.3-2.7 0.5-4.3 0.5-4.3 0 0 8.3 1.1 16.5 2.2 8.2 1.3 16.3 2.6 16.3 2.6 0 0-0.4 2.1-1 5.4-0.3 1.6-0.6 3.5-1 5.6-0.4 2-0.8 4.2-1.2 6.3-0.4 2.2-0.8 4.4-1.2 6.4-0.4 2-0.7 3.9-1.1 5.5-0.6 3.3-1 5.5-1 5.5 0 0 8.5 1.4 16.9 3 8.4 1.7 16.8 3.5 16.8 3.5 0 0 0.5-2.2 1.3-5.4 0.4-1.6 0.8-3.5 1.3-5.5 0.5-2 1.1-4.2 1.6-6.3 0.5-2.2 1-4.3 1.5-6.3 0.5-2 1-3.9 1.3-5.5 0.8-3.2 1.4-5.4 1.4-5.4 0 0 8.1 1.8 16.1 3.8 8.1 2 16.1 4.1 16.1 4.1 0 0-0.4 1.5-1.2 4.1-0.4 1.3-0.9 3-1.4 4.8-0.6 1.8-1.2 3.9-1.8 6.2-0.7 2.3-1.4 4.7-2.2 7.3-0.8 2.6-1.6 5.4-2.4 8.2-0.9 2.9-1.8 5.8-2.6 8.8-0.9 3-1.8 6-2.7 9-0.9 3-1.8 6.1-2.7 9-0.9 3-1.8 6-2.6 8.8-0.8 2.8-1.6 5.6-2.4 8.2-0.8 2.6-1.5 5.1-2.2 7.3-0.7 2.3-1.3 4.4-1.8 6.2-0.6 1.9-1.1 3.5-1.4 4.8-0.8 2.7-1.3 4.2-1.3 4.2 0 0-6.8-1.8-13.7-3.5-6.8-1.6-13.7-3.2-13.7-3.2 0 0 0.6-2.5 1.5-6.2 0.4-1.8 1-4 1.5-6.3 0.6-2.4 1.2-4.8 1.8-7.3 0.6-2.5 1.2-5 1.8-7.3 0.5-2.3 1.1-4.5 1.5-6.4 0.9-3.7 1.5-6.2 1.5-6.2 0 0-8-1.7-16.1-3.3-8.1-1.5-16.2-2.9-16.2-2.9 0 0-0.5 2.5-1.2 6.3-0.4 1.8-0.8 4-1.2 6.4-0.5 2.3-0.9 4.8-1.4 7.3-0.5 2.5-0.9 5.1-1.4 7.4-0.4 2.3-0.8 4.5-1.2 6.4-0.7 3.8-1.2 6.3-1.2 6.3 0 0-6.9-1.1-13.9-2.2-6.9-1-13.9-1.9-13.9-1.9zm108.7-29.4c0.6-2 1.3-3.9 2-5.7 0.7-1.8 1.5-3.6 2.3-5.2 1.6-3.4 3.5-6.4 5.6-9.2 2.1-2.7 4.4-5.1 7-7.3 2.5-2.1 5.3-3.9 8.3-5.4 3.1-1.5 6.2-2.6 9.5-3.4 3.4-0.7 6.8-1.1 10.4-1.1 3.6-0.1 7.3 0.3 11.2 1 3.9 0.8 7.8 1.9 11.9 3.4 4.2 1.5 8 3.3 11.5 5.2 3.4 2 6.5 4.1 9.2 6.4 2.7 2.3 5 4.9 7 7.5 1.9 2.7 3.5 5.5 4.7 8.5 1.1 3 1.9 6.1 2.3 9.3 0.4 3.1 0.5 6.4 0.1 9.7-0.4 3.3-1.1 6.7-2.2 10.2-0.6 1.7-1.2 3.5-2 5.3-0.7 1.8-1.5 3.6-2.5 5.4-1.3 2.7-2.7 5.1-4.1 7.5-1.4 2.3-2.9 4.4-4.4 6.4-1.6 2-3.1 3.8-4.7 5.4-1.7 1.7-3.3 3.2-5 4.5-3.3 2.7-6.9 4.8-10.6 6.4-3.6 1.6-7.5 2.7-11.5 3.3-4 0.6-8.2 0.6-12.5 0-4.3-0.5-8.8-1.7-13.5-3.5-4.8-1.7-9.1-3.7-12.8-5.9-3.7-2.3-6.8-4.7-9.4-7.5-2.6-2.7-4.8-5.9-6.5-9.4-0.9-1.8-1.6-3.7-2.3-5.6-0.6-2-1.2-4.1-1.6-6.2-0.4-2.2-0.7-4.5-0.8-6.8-0.1-2.3-0.1-4.8 0.1-7.3 0.2-2.4 0.6-5 1.1-7.7 0.6-2.6 1.3-5.4 2.2-8.2zm29.1 9.1c-0.8 2.4-1.5 4.6-2.1 6.8-0.5 2.1-0.9 4.1-1.1 6-0.4 3.7-0.2 6.9 0.7 9.6 0.9 2.6 2.3 4.9 4.2 6.7 1.9 1.9 4.2 3.3 7.1 4.4 2.9 1.1 5.7 1.5 8.4 1.4 2.7-0.1 5.3-0.9 7.8-2.3 2.5-1.3 4.9-3.7 7.3-6.9 1.2-1.7 2.4-3.5 3.6-5.7 1.2-2.1 2.3-4.4 3.5-7 0.9-2.2 1.7-4.3 2.4-6.3 0.6-1.9 1-3.8 1.3-5.6 0.5-3.5 0.2-6.7-0.7-9.4-0.9-2.7-2.4-5.1-4.4-7.1-2.1-1.9-4.7-3.5-7.8-4.7-3.1-1.1-6-1.5-8.8-1.4-2.9 0.2-5.6 1.1-8.2 2.5-2.6 1.5-5 3.8-7.2 7-1.1 1.5-2.2 3.3-3.1 5.3-1 2-2 4.3-2.9 6.7zm125.3 70.3c0 0 2.2-3.3 5.4-8.2 1.6-2.4 3.5-5.2 5.5-8.3 1-1.5 2-3.1 3.1-4.7 1-1.6 2.1-3.2 3.1-4.8 1.1-1.7 2.2-3.3 3.2-4.9 1.1-1.6 2.1-3.2 3.1-4.7 2-3 3.9-5.9 5.5-8.3 3.2-4.9 5.4-8.1 5.4-8.1 0 0 7 4.3 13.9 8.8 6.9 4.5 13.7 9.2 13.7 9.2 0 0-2.3 3-5.6 7.7-1.7 2.3-3.7 5-5.8 7.8-2.1 2.9-4.3 6-6.6 9.1-2.2 3-4.5 6.1-6.6 9-2.1 2.9-4.1 5.6-5.7 7.9-3.4 4.6-5.7 7.7-5.7 7.7-1.7 2.4-3.6 4.6-5.7 6.7-2.1 2.1-4.2 3.9-6.5 5.6-2.3 1.7-4.7 3.1-7.2 4.2-2.5 1.2-5.1 2.1-7.7 2.7-2.7 0.7-5.2 1.1-7.6 1.2-2.4 0.1-4.6 0-6.7-0.4-3-0.5-6-1.4-9.1-2.6-3.1-1.2-6.3-2.8-9.6-4.7-3.8-2.2-7.8-4.9-12-8.1-4.2-3-7.4-6.3-9.5-9.7-2.1-3.4-3.6-7.5-4.5-12.1-0.4-2.4-0.6-4.6-0.6-6.8 0-2.2 0.2-4.3 0.7-6.3 0.7-3.3 1.5-6.3 2.4-9 0.9-2.7 1.9-5.2 3.1-7.4 0 0 1.7-3.4 4.4-8.4 1.3-2.5 2.8-5.5 4.5-8.6 1.6-3.2 3.3-6.5 5.1-9.9 1.7-3.4 3.5-6.7 5.1-9.9 1.7-3.1 3.2-6.1 4.5-8.6 2.7-5 4.4-8.4 4.4-8.4 0 0 7.4 3.6 14.8 7.3 7.3 3.8 14.5 7.7 14.5 7.7 0 0-2 3.3-4.9 8.4-1.5 2.5-3.2 5.4-5 8.6-0.9 1.5-1.9 3.2-2.9 4.8-0.9 1.7-1.9 3.3-2.9 5-1 1.7-1.9 3.4-2.9 5-1 1.7-1.9 3.3-2.8 4.9-1.9 3.1-3.6 6.1-5.1 8.6-2.9 5-4.9 8.4-4.9 8.4-1.4 2.4-2.3 4.7-2.8 6.9-0.4 2.2-0.5 4.3 0 6.4 0.9 4.1 3.6 7.3 8 9.8 4.3 2.6 8.5 3.3 12.6 2.2 2.1-0.6 4-1.6 5.8-3 1.9-1.5 3.6-3.4 5.1-5.7zm34.1 72.8c0 0-5.6-4.5-11.1-8.8-5.7-4.3-11.4-8.4-11.4-8.4 0 0 1-1.3 2.7-3.5 0.8-1.2 1.9-2.5 3-4 1.2-1.6 2.6-3.3 4-5.2 1.5-1.9 3-4 4.7-6.2 1.7-2.2 3.4-4.5 5.2-6.9 1.9-2.3 3.7-4.8 5.6-7.3 1.9-2.5 3.9-5 5.8-7.6 2-2.5 3.9-5.1 5.8-7.6 1.9-2.5 3.8-4.9 5.6-7.3 1.8-2.4 3.6-4.7 5.2-6.9 1.7-2.1 3.3-4.2 4.7-6.1 1.5-1.9 2.8-3.7 4-5.2 1.2-1.6 2.2-2.9 3.1-4 1.7-2.2 2.6-3.5 2.6-3.5 0 0 2.8 2 7 5.1 4.1 3.1 9.6 7.3 15 11.6 5.4 4.3 10.7 8.7 14.7 12 4 3.4 6.6 5.7 6.6 5.7 3.9 3.4 7.1 6.5 9.7 9.5 2.6 3 4.6 5.7 6 8.1 1.4 2.5 2.4 5 2.9 7.7 0.4 2.6 0.4 5.3 0 8.1-0.4 2.7-1.3 5.3-2.7 7.9-1.4 2.5-3.3 4.9-5.6 7.2-2 1.9-4.1 3.6-6.3 4.9-2.2 1.3-4.4 2.2-6.8 2.9-2.3 0.6-4.6 0.9-6.9 0.9-2.4 0.1-4.8-0.2-7.1-0.7-3.1-0.6-6.6-2.1-10.7-4.4 1.8 3.4 2.9 6.1 3.2 8.1 0.2 1.4 0.1 3.8-0.3 7.2-0.4 3.4-0.8 5.9-1.4 7.5 0 0-0.7 1.9-1.7 4.8-1 2.9-2.4 6.8-3.7 10.7-1.5 3.8-2.9 7.6-4 10.5-1.1 2.9-1.8 4.8-1.8 4.8 0 0-5.7-5.7-11.4-11.4-5.8-5.5-11.7-10.9-11.7-10.9 0 0 0.6-2.1 1.6-5.2 0.4-1.6 1-3.4 1.5-5.3 0.6-2 1.2-4.1 1.8-6.2 0.6-2 1.1-4.1 1.7-6.1 0.5-2 1-3.8 1.4-5.4 0.9-3.1 1.4-5.3 1.4-5.3 1.1-4.3 1.5-7.4 1.1-9.4-0.7-2.6-2-4.8-4.2-6.5 0 0-2-1.7-2-1.7 0 0-1.7 2-4.2 5-1.3 1.5-2.7 3.2-4.3 5.1-1.6 1.8-3.3 3.8-4.9 5.8-1.7 2-3.4 4-4.9 5.8-1.6 1.9-3.1 3.6-4.3 5.1-2.5 3-4.2 5-4.2 5zm52.6-62.5c0 0-3.3 4-6.7 8-3.3 4-6.7 7.9-6.7 7.9 0 0 10.1 8.4 10.1 8.4 1.1 0.9 3.5 2.4 7.3 4.4 1.8 1 3.8 1.4 5.9 0.9 2.2-0.3 4-1.3 5.5-3 2.3-2.4 3.2-5 2.8-7.7-0.4-2.7-2.8-6-7.3-9.8 0 0-10.9-9.1-10.9-9.1zm-4.6 106.5c0 0 1.1-1.1 3.2-3 1-0.9 2.2-2.1 3.6-3.5 1.4-1.3 3-2.8 4.8-4.5 1.7-1.6 3.6-3.4 5.6-5.3 2-1.9 4.1-3.9 6.3-6 2.2-2 4.4-4.2 6.7-6.3 2.3-2.2 4.6-4.4 7-6.6 2.3-2.2 4.6-4.4 6.9-6.6 2.3-2.1 4.5-4.3 6.7-6.3 2.2-2.1 4.3-4.1 6.3-6 2-1.9 3.9-3.7 5.6-5.3 1.8-1.7 3.4-3.2 4.8-4.5 1.4-1.4 2.6-2.5 3.7-3.5 2-1.9 3.2-3 3.2-3 0 0 5.7 6.1 11.5 12.3 5.6 6.3 11.1 12.7 11.1 12.7 0 0-1.2 1-3.3 2.8-1.1 1-2.4 2.1-3.8 3.3-1.5 1.3-3.2 2.7-5 4.3-1.8 1.6-3.8 3.3-5.9 5.1-2.1 1.7-4.3 3.6-6.6 5.6-2.3 1.9-4.6 4-7 6-2.4 2.1-4.8 4.2-7.3 6.2-2.4 2.1-4.8 4.2-7.2 6.3-2.4 2-4.8 4-7 6-2.3 1.9-4.5 3.8-6.6 5.6-2.1 1.8-4.1 3.5-5.9 5.1-1.8 1.5-3.5 3-5 4.2-1.5 1.3-2.7 2.4-3.8 3.3-2.1 1.9-3.4 2.9-3.4 2.9 0 0-4.7-5.4-9.5-10.8-4.8-5.3-9.7-10.5-9.7-10.5zm28.1 31.9c0 0 1.2-1 3.4-2.8 1.1-0.8 2.4-1.9 3.9-3.2 1.5-1.2 3.2-2.6 5.1-4.1 1.9-1.5 3.9-3.2 6-4.9 2.1-1.8 4.4-3.6 6.7-5.5 2.3-1.9 4.7-3.9 7.2-5.9 2.4-2 4.9-4 7.4-6 2.4-2 4.9-4.1 7.4-6.1 2.4-1.9 4.8-3.9 7.1-5.8 2.4-1.9 4.6-3.8 6.7-5.5 2.2-1.7 4.2-3.4 6-4.9 1.9-1.5 3.6-2.9 5.1-4.2 1.5-1.2 2.8-2.3 3.9-3.2 2.2-1.7 3.4-2.7 3.4-2.7 0 0 2.5 3.1 6.2 7.7 1.9 2.4 4 5.2 6.3 8.1 2.2 3 4.6 6.3 7 9.5 2.3 3.2 4.7 6.5 6.8 9.6 2.2 3.1 4.2 6 5.8 8.5 3.4 5.1 5.6 8.5 5.6 8.5 2.9 4.5 5 8.9 6.1 13.1 1.2 4.2 1.4 8.2 0.8 12-0.6 3.8-1.8 7.1-3.7 9.9-1.9 2.8-4.4 5.1-7.4 7-2.6 1.6-5.3 2.6-8 3.1-2.7 0.4-5.5 0.4-8.3-0.2-3.8-0.7-7.7-2.8-11.7-6.1 1.3 3.7 1.9 7.1 2 10.3 0.1 3.2-0.3 6.1-1.3 8.7-1 2.7-2.4 5.1-4.3 7.2-1.8 2.2-4.2 4.1-7 5.7-2.3 1.4-4.6 2.4-6.9 3.1-2.4 0.7-4.8 1.1-7.2 1.1-2.4 0.1-4.7-0.2-6.9-0.7-2.3-0.5-4.4-1.4-6.5-2.5-2.6-1.3-5.5-3.9-8.7-7.8-4.3-5.2-7.1-8.6-8.3-10.4 0 0-1.8-2.6-4.4-6.6-1.4-1.9-2.9-4.2-4.6-6.6-1.7-2.5-3.6-5-5.4-7.5-1.9-2.6-3.8-5.1-5.5-7.4-1.8-2.4-3.5-4.5-4.9-6.4-2.9-3.6-4.9-6.1-4.9-6.1zm83.5-25.2c0 0-3.9 2.9-7.8 5.8-3.9 2.9-7.8 5.7-7.8 5.7 0 0 8.1 11.6 8.1 11.6 2.8 4.2 5.5 6.6 7.9 7.3 2.6 0.8 5.2 0.2 7.8-1.6 2.5-1.6 3.9-3.8 4.1-6.5 0.3-2.6-1-6-3.8-10.2 0 0-8.5-12.1-8.5-12.1zm-31.3 23.1c0 0-4.2 3.1-8.4 6.2-4.1 3-8.3 6.1-8.3 6.1 0 0 8.8 12.7 8.8 12.7 3 4.4 5.8 7 8.6 7.7 2.8 0.7 5.5 0.2 8.2-1.6 2.6-1.6 4-3.9 4.3-6.8 0.3-2.9-1-6.6-4.1-11.2 0 0-9.1-13.1-9.1-13.1zm64.2 132c0 0-2-5.2-4.1-10.4-2-5.1-4.2-10.2-4.2-10.2 0 0 4.9-2.2 9.7-4.5 4.8-2.2 9.6-4.4 9.6-4.4 0 0 1.3 3 3.1 7.6 1.9 4.6 4.3 10.8 6.6 17 2.3 6.3 4.6 12.6 6.2 17.4 1.6 4.8 2.7 8 2.7 8 0 0-2.6 1-6.4 2.4-1.9 0.6-4.1 1.5-6.5 2.3-2.4 0.9-4.9 1.8-7.5 2.8-2.5 0.9-5.1 1.8-7.5 2.7-2.3 0.9-4.6 1.7-6.5 2.4-3.8 1.4-6.3 2.3-6.3 2.3-2.3-1.7-4.4-3.5-6.3-5.1-2-1.7-3.8-3.3-5.5-4.9-3.4-3.1-6.3-6.2-8.6-9.1-2.3-2.9-4.5-6.2-6.5-9.9-2.1-3.6-4-7.7-5.9-12.1-2.4-5.4-4.1-10.5-5.1-15.4-1.1-4.8-1.6-9.3-1.4-13.6 0.2-4.3 1-8.5 2.4-12.5 0.6-2.1 1.5-4.1 2.5-6 1-2 2.1-4 3.4-5.9 1.3-1.9 2.7-3.8 4.2-5.6 1.5-1.8 3.2-3.5 5-5.1 1.8-1.6 3.7-3.2 5.7-4.7 2-1.5 4.2-2.9 6.5-4.2 2.4-1.4 4.8-2.7 7.2-3.7 2.4-1 4.8-1.9 7.2-2.6 2.4-0.7 4.8-1.1 7.1-1.4 2.4-0.3 4.8-0.4 7.2-0.4 2.4 0.1 4.7 0.4 7 0.9 2.3 0.5 4.6 1.2 6.8 2.1 4.5 1.8 8.7 4.5 12.8 8 3.2 2.8 6.2 6.4 9.2 10.8 2.9 4.5 5.7 9.9 8.4 16.1 2.5 6 4.4 11.4 5.8 16.2 1.3 4.7 2 8.9 2.2 12.3 0.2 3.5 0 6.8-0.5 9.9-0.6 3.2-1.6 6.1-2.9 8.9-1.3 2.8-2.9 5.5-4.9 8-2.1 2.4-4.5 4.7-7.2 6.9 0 0-4-7.7-8.1-15.4-4.1-7.5-8.4-14.9-8.4-14.9 3-2.8 4.9-6.2 5.5-10.1 0.6-4-0.1-8.3-2.1-13.1-1.5-3.6-3.4-6.5-5.8-8.8-2.3-2.2-5-3.9-8.1-4.8-3.1-1-6.6-1.1-10.4-0.4-1.9 0.4-4 1-6.1 1.7-2.1 0.8-4.3 1.8-6.6 3-2.5 1.3-4.7 2.5-6.7 3.9-2 1.3-3.7 2.6-5.3 4-3 2.8-5.2 5.6-6.4 8.6-1.3 3-1.8 6.1-1.7 9.3 0.1 3.2 0.9 6.5 2.4 10 1.4 3.3 3.2 6.2 5.3 8.9 2.2 2.6 5.1 5.4 8.9 8.5 0 0 8.9-3.7 8.9-3.7zm-5.2 120.4c0 0 3.8-2.2 7.7-4.4 3.8-2.2 7.6-4.5 7.6-4.5 0 0-1.8-9.7-3.8-19.3-2.2-9.5-4.4-18.9-4.4-18.9 0 0-4.3-0.1-8.7-0.2-4.3 0-8.6-0.1-8.6-0.1 0 0-2.2-8-4.4-16-2.4-7.9-4.8-15.7-4.8-15.7 0 0 1.7 0 4.6 0.1 1.5 0 3.3 0.1 5.3 0.1 2.1 0.1 4.4 0.2 6.9 0.3 2.5 0.1 5.2 0.2 8.1 0.4 2.9 0.2 6 0.3 9.2 0.5 3.1 0.2 6.4 0.5 9.7 0.7 3.3 0.3 6.7 0.6 10.1 0.9 3.4 0.3 6.7 0.6 10.1 1 3.3 0.3 6.6 0.7 9.8 1 3.1 0.4 6.2 0.8 9.1 1.2 2.9 0.3 5.7 0.7 8.2 1.1 2.6 0.3 4.9 0.7 7 1 2 0.3 3.8 0.5 5.3 0.8 3 0.4 4.7 0.7 4.7 0.7 0 0 2.5 10.3 4.8 20.7 2.1 10.5 4.2 21.1 4.2 21.1 0 0-1.4 1.1-3.9 3-1.2 1-2.7 2.1-4.4 3.4-1.8 1.3-3.7 2.8-5.8 4.3-2.2 1.6-4.5 3.3-6.9 5.1-2.5 1.8-5.1 3.7-7.8 5.6-2.6 1.9-5.4 3.9-8.3 5.9-2.8 2-5.7 3.9-8.6 5.9-2.9 2-5.8 4-8.6 5.9-2.9 1.9-5.7 3.7-8.4 5.5-2.8 1.8-5.4 3.5-7.9 5.1-2.6 1.6-5 3.2-7.2 4.5-2.2 1.4-4.2 2.7-6 3.8-1.8 1.1-3.4 2-4.7 2.8-2.5 1.6-4 2.5-4 2.5 0 0-1.2-9.1-2.4-18.1-1.4-8.8-2.8-17.7-2.8-17.7zm29.9-45.8c0 0 1.4 6.1 2.8 12.3 1.3 6.2 2.6 12.5 2.6 12.5 0 0 2-1.3 5.1-3.3 1.6-1 3.3-2.1 5.3-3.4 1.9-1.2 3.9-2.5 6-3.9 2-1.3 4.1-2.7 6-4 1.9-1.2 3.7-2.4 5.2-3.5 3-2 5.1-3.4 5.1-3.4 0 0-2.4-0.3-6-0.6-1.8-0.2-3.9-0.4-6.1-0.6-2.2-0.2-4.6-0.5-7-0.7-2.3-0.2-4.7-0.4-7-0.5-2.2-0.2-4.3-0.4-6-0.5-3.6-0.2-6-0.4-6-0.4z"/><path class="c" d="m370.1 876.1l-41.9 1.4 140-255.5c0 0 3.7 172.6 102 268.5l-69.6-4.8c10.5 90 97 292 368.4 309.1-413.2 80.9-487.5-230.4-498.9-318.7z"/><path class="b" d="m1071.1 1099.1l22.9 35-275.3 24.2c0 0 138-100.9 147.4-239.5l44.4 62.6c66.6-61.5 205.2-270.4-2.7-558.5 382.2 381.3 127.9 615 63.3 676.2z"/><path class="d" d="m1069 622.8l-114.2-267.1-21.6 43.9c-161.5-123.6-383.6-92.9-564.8 315.3 102-181.3 258.3-306.7 481.6-216.3l-37.1 71.4c143.4-51.4 256.1 52.8 256.1 52.8z"/><path fill-rule="evenodd" d="m762.3 969.6c-154.4-42.6-245.6-178.5-225.5-365.5 16.8 124.6 71.1 201.5 205.8 129.5-101.3 89.6-104.9 164.5 19.7 236zm-131.5-229.1c-30.4 0-55.1-24.6-55.1-55.1 0-30.5 24.7-55.1 55.1-55.1 30.5 0 55.1 24.6 55.1 55.1 0 30.5-24.6 55.1-55.1 55.1z"/><path fill-rule="evenodd" d="m702.3 816.9c145.8 50.1 249.5-8.9 234.7-220.2 47.9 155.9 52.4 402.2-200.2 532.3 139.4-118.9 123.3-222.1-34.5-312.1zm130.9-19.2c-39.9 0-72.2-32.3-72.2-72.2 0-40 32.3-72.3 72.2-72.3 40 0 72.3 32.3 72.3 72.3 0 39.9-32.3 72.2-72.3 72.2z"/></svg>