<svg version="1.2" xmlns="http://www.w3.org/2000/svg" viewBox="0 0 886 873" width="886" height="873"><style>.a{fill:#f74459}.b{fill:#f6b945}.c{fill:#bfd566}.d{fill:#fff}</style><path class="a" d="m42.1 541.1l-41.9 1.4 140-255.5c0 0 3.7 172.6 102 268.5l-69.6-4.8c10.5 90 97 292 368.4 309.1-413.2 80.9-487.5-230.4-498.9-318.7z"/><path class="b" d="m743.1 764.1l22.9 35-275.3 24.2c0 0 138-100.9 147.4-239.5l44.4 62.6c66.6-61.5 205.2-270.4-2.7-558.5 382.2 381.3 127.9 615 63.3 676.2z"/><path class="c" d="m741 287.8l-114.2-267.1-21.6 43.9c-161.5-123.6-383.6-92.9-564.8 315.3 102-181.3 258.3-306.7 481.6-216.3l-37.1 71.4c143.4-51.4 256.1 52.8 256.1 52.8z"/><path fill-rule="evenodd" class="d" d="m434.3 634.6c-154.4-42.6-245.6-178.5-225.5-365.5 16.8 124.6 71.1 201.5 205.8 129.5-101.3 89.6-104.9 164.5 19.7 236zm-131.5-229.1c-30.4 0-55.1-24.6-55.1-55.1 0-30.5 24.7-55.1 55.1-55.1 30.5 0 55.1 24.6 55.1 55.1 0 30.5-24.6 55.1-55.1 55.1z"/><path fill-rule="evenodd" class="d" d="m374.3 481.9c145.8 50.1 249.5-8.9 234.7-220.2 47.9 155.9 52.4 402.2-200.2 532.3 139.4-118.9 123.3-222.1-34.5-312.1zm130.9-19.2c-39.9 0-72.2-32.3-72.2-72.2 0-40 32.3-72.3 72.2-72.3 40 0 72.3 32.3 72.3 72.3 0 39.9-32.3 72.2-72.3 72.2z"/></svg>