<svg version="1.2" xmlns="http://www.w3.org/2000/svg" viewBox="0 0 490 568" width="490" height="568"><style>.a{fill:#000001}.b{fill:#f2a73a}.c{fill:#2b89b2}.d{fill:#36c0ef}.e{fill:#b0ca41}.f{fill:#f5a83a}.g{fill:#fefefe}</style><path class="a" d="m135.6 55h-51.9v-51.9h51.9z"/><path class="a" d="m181.6 55h-33.6v-39.2h33.6z"/><path class="a" d="m226.1 25.4h-16.1v-16.1h16.1z"/><path class="a" d="m223.8 67.7h-32.3v-32.3h32.3z"/><path class="a" d="m164.8 87.3h-22.3v-22.3h22.3z"/><path class="a" d="m161.9 152.9h-24.3v-24.3h24.3z"/><path class="a" d="m187.8 120.4h-9.7v-9.7h9.7z"/><path class="a" d="m169.4 114.5h-13.2v-13.3h13.2z"/><path class="a" d="m131.3 108.3h-34.8v-32.2h34.8z"/><path class="b" d="m133 52.7h-51.9v-51.9h51.9z"/><path class="b" d="m178.9 52.7h-33.6v-39.2h33.6z"/><path class="b" d="m223.5 23.2h-16.1v-16.2h16.1z"/><path class="b" d="m221.2 65.4h-32.3v-32.3h32.3z"/><path class="b" d="m162.1 85h-22.2v-22.2h22.2z"/><path class="b" d="m159.3 150.6h-24.3v-24.2h24.3z"/><path class="b" d="m185.2 118.1h-9.8v-9.7h9.8z"/><path class="b" d="m166.8 112.2h-13.2v-13.2h13.2z"/><path class="b" d="m128.7 106h-34.8v-32.1h34.8z"/><path class="c" d="m330.1 13.5h-83.2v22.1h-13.1v47h-39.9v49.3h-27.1v27.6h-38.1v-30.6h-39.7v312.8h304.6v-364.7c0-35.1-28.4-63.5-63.5-63.5z"/><path class="d" d="m368 26.1c-7.1 2.3-14.8 3.3-27.4 9.1-22.8 10.4-41.8 27.3-51.2 35.8-27.4 24.8-43.2 48.5-57.8 70.6-21.6 32.7-34 59.6-45.2 84-13.5 29.4-21.3 51.5-34.7 89.2-2.6 7.2-22 61.9-19.8 62.7 1 0.4 6.2-11.7 17.9-36.2 3.2-6.5 19.1-39.7 36.2-71.3 8.3-15.4 19.2-35.3 35.1-60.1 11-17.1 23.8-36.9 43.3-60.9 18.9-23.1 29.5-36 48.2-50.7 28.5-22.5 54.6-32.3 63.8-35.5 5.9-2 10.9-3.5 14.4-4.4-4-13.1-12.1-24.4-22.8-32.3z"/><path class="e" d="m8.7 373c0.6-1.6 21.6 6 52.6 13.1 39 8.9 68.3 11.4 75.5 11.9 39.7 3.1 64.4-0.2 74.6-1.8 15.1-2.5 25.8-5.6 35.9-10.1 12.5-5.6 16.5-9.7 25-14.2 16.6-8.7 32-8.8 56.3-8.6 29.4 0.3 50.8 5 75.8 10.5 0 0 34.5 7.6 65 19.6 0.2 0.1 0.4 0.2 0.4 0.2 10.7 3.5 10.8 4.3 10.8 4.4-0.2 0.7-12.9-1.8-19.4-2.9 0 0-14.5-2.7-42.2-5.6-46.8-5.1-90.7 4.3-94.5 5.2-12.4 2.7-26.1 5.8-42.9 13.4-13.3 6-15.2 8.9-26.5 13.1-16.2 6-29.7 6.6-44.1 7.1-23.5 0.8-41.4-2.1-55.2-4.5-21.8-3.7-37-8.4-60.5-15.7-13-4-32.1-10.3-54.9-19.8-5.1-2.1-32.3-13.4-31.7-15.3z"/><path class="f" d="m466.8 357.3h-73.2v-269.9c23.2 1.1 42.6 13.8 56.4 31.9 4.5 5.9 9.8 12.9 13.8 23.4 5.2 13.7 6 28.6 4.3 43.1-0.7 6.2-1.4 12.9-4 18.6-0.3 0.7-5.3 10.1-5.5 10 0 0 3.7 1.8 5.9 5.9 2.3 4.1 2.3 18.7 2.3 25.8 0 7.1 0 111.2 0 111.2z"/><path class="g" d="m320.4 357.3h73.2v-269.9c-23.2 1.1-42.7 13.8-56.4 31.9-4.5 5.9-9.8 12.9-13.8 23.4-5.2 13.7-6 28.6-4.4 43.1 0.8 6.2 1.4 12.9 4.1 18.6 0.3 0.7 5.3 10.1 5.5 10 0 0-3.7 1.8-5.9 5.9-2.3 4.1-2.3 18.7-2.3 25.8 0 7.1 0 111.2 0 111.2z"/><path class="c" d="m12.5 495.9q1 0 1.7-0.7 0.7-0.6 0.7-1.6 0-1-0.7-1.7-0.7-0.7-1.7-0.7-0.9 0-1.6 0.7-0.7 0.7-0.7 1.7 0 1 0.7 1.6 0.7 0.7 1.6 0.7z"/><path class="c" d="m23.9 495.9q-0.6 0.7-1.1 1.6-0.4 0.9-1.3 1.7-0.9 0.7-1.4 0.7v0.9q0.6 0.5 1.1 1.3 0.7 1.3 0.7 2.7v6.8q0 1.3-0.9 2.2-0.9 0.9-2.2 0.9h-9.4q-1.6 0-2.8-0.7-0.6-0.4-1.2-1.1h-0.9q0 0.5-0.7 1.3-0.8 1-1.7 1.4-1.1 0.6-1.8 1.3-0.1 0.1-0.2 0.3v0.6h18.7q2.7 0 4.5-1.7 1.7-1.8 1.7-4.5v-16.2h-0.6q-0.3 0.3-0.5 0.5z"/><path class="c" d="m31.1 478.8q0.9-0.5 1.9-0.5v-1.1q0-1.6 0.7-2.8 0.4-0.7 1.1-1.3v-0.9q-0.5 0-1.3-0.7-1-0.7-1.4-1.6-0.6-1.2-1.3-1.8 0-0.1-0.2-0.3h-0.7v12.4q0.4-0.8 1.2-1.4z"/><path class="c" d="m60.4 511.6q-0.9 0-1.6 0.7-0.7 0.7-0.7 1.6 0 1 0.7 1.7 0.7 0.7 1.6 0.7 1 0 1.7-0.7 0.7-0.7 0.7-1.7 0-0.9-0.7-1.6-0.7-0.7-1.7-0.7z"/><path class="c" d="m60.4 517.8q-0.9 0-1.6 0.7-0.7 0.7-0.7 1.7 0 1 0.7 1.7 0.7 0.7 1.6 0.7 1 0 1.7-0.7 0.7-0.7 0.7-1.7 0-1-0.7-1.7-0.7-0.7-1.7-0.7z"/><path class="c" d="m68.9 477.2v1.6q1 0 1.8 0.6 0.9 0.5 1.3 1.3v-12.9h-0.7q-0.3 0.3-0.5 0.5-0.6 0.6-1 1.6-0.5 0.9-1.4 1.6-0.8 0.7-1.3 0.7v0.9q0.8 0.8 1.3 1.8 0.5 1.1 0.5 2.3z"/><path fill-rule="evenodd" class="c" d="m95.5 489.4h0.7v19q0 3-1 4.5-1.1 1.8-3.7 1.8-2.6 0-3.7-1.7-1-1.6-1-4.6h-56.9v-24.5q0-2.1 0.9-3.4 1-1.3 2.8-1.3 1.5 0 2.5 1.4 0.6 1 0.9 2.4l-0.3 0.2q-0.6-0.8-1-1.1-0.7-0.6-1.4-0.6-0.9 0-1.2 1.2-0.1 0.6-0.1 1.2v21.4h7.9q0-2.2 0.8-4 0.7-1.7 2.4-3.2 1.2-1 3.2-1.9 2.8-1.2 3-1.4 1.4-0.8 1.9-2h1.2v12.5h6.4v-9.4q0-1.4-0.7-2.7-0.5-0.8-1.1-1.3v-0.9q0.5 0 1.4-0.7 0.9-0.7 1.3-1.7 0.5-0.9 1.1-1.6 0.2-0.2 0.5-0.4h0.6v18.7h6v-20.9q0-0.9-0.3-1.5-0.3-0.9-1-0.9-0.8 0-1.5 0.6-0.2 0.2-0.9 1.1l-0.3-0.2q0.3-1.5 0.9-2.4 0.9-1.4 2.5-1.4 1.8 0 2.8 1.4 0.9 1.2 0.9 3.3v20.9h7.3v-0.5q0-1.4-0.8-2.7-0.5-0.8-1.1-1.3v-0.9q0.5 0 1.4-0.7 0.9-0.8 1.4-1.7 0.4-0.9 1-1.6 0.2-0.2 0.5-0.5h0.7v9.9h4.4v-3.4q0-1.4-0.7-2.6-0.5-0.9-1.1-1.4v-0.9q0.5 0 1.4-0.7 0.9-0.7 1.3-1.7 0.5-0.9 1.1-1.6 0.2-0.2 0.5-0.4h0.6v15.8q0 1.6 0.4 2.4 0.3 0.8 1.2 0.8 0.9 0 1.2-0.8 0.4-0.8 0.4-2.4v-9.6q0-1.2-0.5-2.2-0.5-1.1-1.3-1.8v-1q0.5 0 1.4-0.7 0.9-0.7 1.3-1.6 0.4-0.9 1-1.6 0.2-0.2 0.5-0.5zm-45.2 8.8q-1.5 0.6-2.4 1-1 0.5-1.7 1.2-2.1 2-2.1 4.9h6.2z"/><path class="c" d="m162.1 506.2q-0.9-0.4-1.6-1.3-0.7-0.9-0.7-1.4h-1q-0.6 1.1-0.8 1.2-0.2 0.3-0.8 0.3l-8.9-18q-0.2-0.2-0.5-0.4-0.4-0.2-0.9-0.2-0.5 0-0.9 0.2-0.4 0.2-0.5 0.4l-3.6 7.2q-0.2 0.4-0.2 0.7 0 0.4 0.2 0.8l4.8 9.6h-22.4q-1.4 0-2.7-0.7-0.8-0.5-1.3-1.1h-1q0 0.5-0.7 1.4-0.7 0.9-1.6 1.3-1.2 0.6-1.8 1.3-0.1 0.1-0.3 0.3v0.6h31.5q1.7 0 2.6-0.6 1-0.7 1-1.9 0-1-0.5-2l-4.5-8.9 1.9-3.8 7.2 14.5q0.7 1.4 1.5 2 1 0.7 2.6 0.7h6v-0.6q-0.3-0.3-0.5-0.5-0.7-0.6-1.6-1.1z"/><path class="c" d="m134.8 511.6q-1 0-1.7 0.7-0.7 0.7-0.7 1.6 0 1 0.7 1.7 0.7 0.7 1.7 0.7 1 0 1.7-0.7 0.7-0.7 0.7-1.7 0-0.9-0.7-1.6-0.7-0.7-1.7-0.7z"/><path class="c" d="m141.1 511.6q-1 0-1.7 0.7-0.7 0.7-0.7 1.6 0 1 0.7 1.7 0.7 0.7 1.7 0.7 0.9 0 1.6-0.7 0.7-0.7 0.7-1.7 0-0.9-0.7-1.6-0.7-0.7-1.6-0.7z"/><path class="c" d="m170.8 479.3q0 2.3 1.2 4.1 1.1 1.9 2.6 2.4 0.4-0.4 1.2-0.9 0.8-0.5 1.6-0.6-0.9-0.6-1.8-1.2-1.7-1.7-1.7-4.8v-10.5h-0.6q-0.3 0.3-0.5 0.5-0.6 0.6-1 1.6-0.5 0.9-1.4 1.6-0.9 0.7-1.4 0.7v0.9q0.9 0.8 1.4 1.8 0.4 1.1 0.4 2.3z"/><path class="c" d="m178.6 491.2q-1.9 0-3.3 1.4-1.4 1.4-1.4 3.3 0 1.3 0.7 2.4 0.4-0.5 1.2-0.9 0.8-0.5 1.6-0.6-0.3-0.4-0.3-0.9 0-0.6 0.4-1.1 0.5-0.4 1.1-0.4 2 0 3.4-1.4 1.3-1.4 1.3-3.3 0-0.7-0.1-1.3-0.2-0.6-0.6-1.2-1 1.1-2.7 1.5 0.1 0.2 0.2 0.5 0.1 0.2 0.1 0.5 0 0.6-0.5 1.1-0.4 0.4-1.1 0.4z"/><path class="c" d="m185.5 469.9q-0.5-1.2-1.2-1.8-0.1-0.1-0.3-0.3h-0.7v10.5q0 2.6-1.2 4.4-1.7 2.3-3.5 2.3-1.9 0-3.3 1.4-1.4 1.3-1.4 3.3 0 0.7 0.2 1.4 0.2 0.6 0.6 1.1 1.1-1.2 2.7-1.5 0-0.2-0.1-0.4-0.2-0.4-0.2-0.6 0-0.6 0.4-1.1 0.5-0.5 1.1-0.5 2.3 0 4.9-2.5 2.9-2.9 2.9-6.3v-2.1q0-1.6 0.8-2.8 0.4-0.7 1.1-1.3v-0.9q-0.5 0-1.4-0.7-1-0.7-1.4-1.6z"/><path class="c" d="m183.3 502.9v-0.7q0-0.8-0.2-1.4-0.2-0.6-0.5-1.1-0.6 0.6-1.3 1-0.6 0.4-1.4 0.5 0.1 0.2 0.2 0.5 0.1 0.2 0.1 0.5v6.2q0 0.7-0.5 1.2-0.4 0.4-1.1 0.4-0.6 0-1.1-0.4-0.4-0.5-0.4-1.2v-6.2q0-0.6 0.4-1.1 0.5-0.5 1.1-0.5 2 0 3.4-1.3 1.3-1.4 1.3-3.4 0-0.6-0.2-1.3-0.2-0.7-0.5-1.2-0.3 0.5-1.2 1.1-1 0.5-1.5 0.5 0.3 0.4 0.3 0.9 0 0.7-0.5 1.1-0.4 0.5-1.1 0.5-1.9 0-3.3 1.4-1.4 1.3-1.4 3.3v0.7q0 2-1.5 3.6-0.5 0.6-1.6 1.3v0.6h3.1q0 2 1.4 3.4 1.4 1.4 3.3 1.4 2 0 3.4-1.4 1.3-1.4 1.3-3.4h3.1v-0.6q-1-0.8-1.5-1.3-1.6-1.7-1.6-3.6z"/><path fill-rule="evenodd" class="c" d="m221.6 492.8h1.3v15.6h-17.3q0 5-1.5 8-1.4 2.5-3.7 3.7-1.8 0.8-4.1 0.8v-1.1q1.2 0 2.5-1 1.6-1.2 2.5-3.5 1.2-2.7 1.2-6.1v-0.8h-9.4v-2.6q0-2.5 0.7-4.3 0.7-1.9 2.5-3.4 1.2-1 3.2-1.9 2.8-1.2 3-1.4 1.4-0.8 1.9-2h1.2v12.5h4.8q0-2.2 0.7-4 0.8-1.7 2.4-3.2 1.3-1 3.3-1.9 2.7-1.2 2.9-1.4 1.5-0.8 1.9-2zm-19.1 5.4q-1.6 0.6-2.5 1-0.9 0.5-1.7 1.2-2 2-2 4.9h6.2zm17.3 0q-1.6 0.6-2.5 1-0.9 0.4-1.7 1.2-2.1 2-2.1 4.9h6.3z"/><path class="c" d="m254.1 495.9q1 0 1.7-0.7 0.7-0.6 0.7-1.6 0-1-0.7-1.7-0.7-0.7-1.7-0.7-0.9 0-1.6 0.7-0.7 0.7-0.7 1.7 0 1 0.7 1.6 0.7 0.7 1.6 0.7z"/><path class="c" d="m265.5 495.9q-0.6 0.7-1.1 1.6-0.4 0.9-1.3 1.7-0.9 0.7-1.4 0.7v0.9q0.6 0.5 1.1 1.3 0.7 1.3 0.7 2.7v6.8q0 1.3-0.9 2.2-0.9 0.9-2.2 0.9h-9.4q-1.6 0-2.8-0.7-0.6-0.4-1.2-1.1h-0.9q0 0.5-0.7 1.3-0.8 1-1.6 1.4-1.2 0.6-1.9 1.3-0.1 0.1-0.2 0.3v0.6h18.7q2.7 0 4.5-1.7 1.7-1.8 1.7-4.5v-16.2h-0.6q-0.3 0.3-0.5 0.5z"/><path class="c" d="m272.7 478.8q0.9-0.5 1.9-0.5v-1.1q0-1.6 0.7-2.8 0.4-0.7 1.1-1.3v-0.9q-0.5 0-1.3-0.7-1-0.7-1.4-1.6-0.6-1.2-1.3-1.8 0-0.1-0.2-0.3h-0.7v12.4q0.4-0.8 1.2-1.4z"/><path fill-rule="evenodd" class="c" d="m320.1 505.3h1.9v3.1h-1.9q0 3-1 4.5-1.1 1.8-3.7 1.8-2.6 0-3.7-1.7-1-1.6-1-4.6h-39.2v-24.5q0-2.1 0.9-3.4 1-1.3 2.8-1.3 1.6 0 2.5 1.4 0.6 1 0.9 2.4l-0.3 0.2q-0.6-0.8-1-1.1-0.7-0.6-1.4-0.6-0.9 0-1.1 1.2-0.2 0.6-0.2 1.2v21.4h11.1v-21.4q0-0.9-0.2-1.5-0.3-0.9-1.1-0.9-0.8 0-1.4 0.6-0.3 0.2-1 1.1l-0.2-0.2q0.2-1.5 0.8-2.4 1-1.4 2.5-1.4 1.8 0 2.8 1.4 0.9 1.2 0.9 3.3v15.2h25q2.6 0 4.4 1.8 1.9 1.8 1.9 4.4zm-3.2 0q0-1.3-0.9-2.2-0.9-0.9-2.2-0.9h-25v3.1h25v3.1q0 1.6 0.4 2.4 0.3 0.8 1.2 0.8 0.9 0 1.2-0.8 0.3-0.8 0.3-2.4z"/><path class="c" d="m285.7 477.2v1.1q1 0 1.9 0.6 0.8 0.5 1.2 1.3v-12.4h-0.6q-0.3 0.3-0.5 0.5-0.6 0.6-1.1 1.6-0.4 0.9-1.3 1.6-0.9 0.7-1.4 0.7v0.9q0.6 0.5 1.1 1.4 0.7 1.3 0.7 2.7z"/><path class="c" d="m326 477.2v1.6q1 0 1.9 0.6 0.8 0.5 1.2 1.3v-12.9h-0.6q-0.3 0.3-0.5 0.5-0.6 0.6-1.1 1.6-0.4 0.9-1.3 1.6-0.9 0.7-1.4 0.7v0.9q0.9 0.8 1.4 1.8 0.4 1.1 0.4 2.3z"/><path class="c" d="m353.4 489.4h-0.7q-0.3 0.3-0.5 0.5-0.6 0.7-1 1.6-0.5 0.9-1.4 1.6-0.9 0.7-1.4 0.7v1q0.9 0.7 1.4 1.8 0.4 1 0.4 2.2v9.6q0 1.6-0.3 2.4-0.4 0.8-1.2 0.8-0.9 0-1.3-0.8-0.3-0.8-0.3-2.4v-15.8h-0.7q-0.3 0.2-0.5 0.4-0.6 0.7-1 1.6-0.4 1-1.3 1.7-0.9 0.7-1.4 0.7v0.9q0.6 0.5 1.1 1.4 0.7 1.2 0.7 2.6v3.4h-4.5v-9.9h-0.6q-0.3 0.3-0.5 0.5-0.6 0.7-1.1 1.6-0.4 0.9-1.3 1.7-0.9 0.7-1.4 0.7v0.9q0.6 0.5 1.1 1.3 0.7 1.3 0.7 2.7v0.5h-4.9-2.4v-20.9q0-2.1-0.9-3.3-1-1.4-2.8-1.4-1.5 0-2.5 1.4-0.5 0.9-0.8 2.4l0.3 0.2q0.7-0.9 0.9-1.1 0.7-0.6 1.4-0.6 0.8 0 1.1 0.9 0.2 0.6 0.2 1.5v20.9h-4v3.1h9.5 12.5q0 3 0.9 4.6 1.2 1.7 3.8 1.7 2.6 0 3.7-1.8 1-1.5 1-4.5h1.8v-3.1h-1.8z"/><path class="c" d="m358.7 479.7q-1.5 0-2.5 1.4-0.6 0.9-0.8 2.4l0.2 0.2q0.7-0.9 1-1.1 0.6-0.6 1.4-0.6 0.8 0 1.1 0.9 0.2 0.6 0.2 1.5v20.9h-4.1v3.1h7.2v-24q0-2.1-0.9-3.3-1-1.4-2.8-1.4z"/><path class="c" d="m361.3 468.3q-0.6 0.6-1.1 1.6-0.4 0.9-1.3 1.6-0.9 0.7-1.4 0.7v0.9q0.9 0.8 1.3 1.8 0.5 1.1 0.5 2.3v1.6q1 0 1.9 0.6 0.8 0.5 1.2 1.3v-12.9h-0.6q-0.3 0.3-0.5 0.5z"/><path class="c" d="m368.5 478.8q0.9-0.5 1.9-0.5v-1.1q0-1.6 0.7-2.8 0.4-0.7 1.1-1.3v-0.9q-0.5 0-1.3-0.7-1-0.7-1.4-1.6-0.6-1.2-1.3-1.8 0-0.1-0.2-0.3h-0.7v12.4q0.4-0.8 1.2-1.4z"/><path class="c" d="m375.4 506.2q-0.9-0.4-1.6-1.3-0.7-0.9-0.7-1.4h-0.9q-0.4 0.5-0.7 1-0.5 0.6-1.1 0.7v-21.3q0-0.6 0.2-1.2 0.2-1.2 1.1-1.2 0.7 0 1.4 0.6 0.4 0.3 1 1.1l0.3-0.2q-0.3-1.4-0.9-2.4-0.9-1.4-2.5-1.4-1.8 0-2.8 1.3-0.9 1.3-0.9 3.4v24.5h10.2v-0.6q-0.3-0.3-0.5-0.5-0.6-0.6-1.6-1.1z"/><path class="c" d="m400.6 492.8q1 0 1.7-0.7 0.7-0.7 0.7-1.7 0-0.9-0.7-1.6-0.7-0.7-1.7-0.7-0.9 0-1.6 0.7-0.7 0.7-0.7 1.6 0 1 0.7 1.7 0.7 0.7 1.6 0.7z"/><path class="c" d="m400.6 486.3q1 0 1.7-0.7 0.7-0.7 0.7-1.7 0-1-0.7-1.7-0.7-0.6-1.7-0.6-0.9 0-1.6 0.6-0.7 0.7-0.7 1.7 0 1 0.7 1.7 0.7 0.7 1.6 0.7z"/><path fill-rule="evenodd" class="c" d="m445.4 492.8h1.2v15.6h-18q-1.8 0-3.6-1-1.4-0.9-3.6-2.9-2 1.9-3.5 2.8-1.9 1.1-3.7 1.1h-18v-2.6q0-2.5 0.7-4.3 0.7-1.9 2.5-3.4l2.5-2.1q1.7-1.6 2.5-2.9 1.2-1.7 1.2-3.4v-5.3q0-1.3-0.4-2.3-0.5-1-1.4-1.8v-0.9q0.5 0 1.4-0.7 0.9-0.7 1.4-1.7 0.4-0.9 1-1.5 0.2-0.2 0.5-0.5h0.6v30.3h5.5q1.2 0 2.5-0.8 1-0.6 2.5-2.1-0.9-0.7-3.3-1.6-0.8-0.3-2.3-0.9 0-2.8 1.5-4.8 0.8-1 3.2-2.9 2.3-1.8 3.1-3.1 0.9 1.3 3.1 3 2.4 1.9 3.2 3 1.5 2.1 1.5 4.8-1.4 0.6-2.2 0.9-2.4 0.9-3.3 1.6 1.4 1.4 2.5 2.1 1.3 0.8 2.4 0.8h5.5q0-2.2 0.8-4 0.7-1.7 2.4-3.2 1.2-1 3.2-1.9 2.8-1.2 3-1.4 1.4-0.8 1.9-2zm-39.8 3.4q-0.4 0.9-1.9 2.1l-2.5 2.1q-1 1-1.4 2.2-0.4 1.1-0.4 2.7h6.2zm18.1 2.6q1.1-0.5 2.2-1-0.3-1-1.7-2.2-1.8-1.4-2.8-2.2-2 1.6-2.8 2.2-1.3 1.2-1.7 2.2 0.8 0.3 2.2 1 1.6 0.8 2.3 1.4 0.7-0.6 2.3-1.4zm19.8-0.6q-1.5 0.6-2.5 1-0.9 0.4-1.6 1.2-2.1 2-2.1 4.9h6.2z"/><path class="c" d="m452.8 478.8q0.8-0.5 1.8-0.5v-1.1q0-1.6 0.8-2.8 0.3-0.7 1-1.3v-0.9q-0.5 0-1.3-0.7-1-0.7-1.4-1.6-0.5-1.2-1.2-1.8-0.1-0.1-0.3-0.3h-0.7v12.4q0.4-0.8 1.3-1.4z"/><path class="c" d="m468.9 511.6q-1 0-1.7 0.7-0.7 0.7-0.7 1.6 0 1 0.7 1.7 0.7 0.7 1.7 0.7 0.9 0 1.6-0.7 0.7-0.7 0.7-1.7 0-0.9-0.7-1.6-0.7-0.7-1.6-0.7z"/><path class="c" d="m488.7 507.3q-0.6-0.6-1.6-1.1-0.9-0.4-1.6-1.3-0.7-0.9-0.7-1.4h-0.9q-0.7 0.8-1.2 1.1-1.3 0.7-3.6 0.7-3.9 0-7.2-3.2-3-3.1-3-6.2 0-2.9 1.5-5.7 1.4-2.1 2.9-4.2 1.5-2.3 1.5-4.2 0-2.8-1.7-4-1.8-1.2-6.1-1.2h-7.1v0.4q0.9 0.7 1.9 1.4 1 0.6 1.7 0.6-0.3 0.4-0.3 0.8 0 0.5 0.5 1.1 0.1 0.1 0.5 0.3h0.3q0.3-0.6 0.6-0.9 0.7-0.9 1.9-0.9h0.3q2.1 0 3.1 0.6 1.1 0.7 1.1 2.1 0 0.9-1.5 3.1-2.1 2.9-2.8 4.4-1.5 3-1.5 6.3 0 3.6 1.7 6.4 1 1.6 2.8 3h-10.7-4.9v-21.4q0-0.6 0.2-1.2 0.3-1.2 1.1-1.2 0.8 0 1.5 0.6 0.3 0.3 0.9 1.1l0.3-0.2q-0.3-1.4-0.9-2.4-0.9-1.4-2.5-1.4-1.8 0-2.7 1.3-1 1.3-1 3.4v24.5h8 29.7v-0.6q-0.3-0.3-0.5-0.5z"/><path class="c" d="m21.1 536.7h-3.6v-0.9h8v0.9h-3.6v13.5q0 2.9-0.4 4.3-0.4 1.4-1.6 2.4-1.2 0.9-2.8 1.4-1.6 0.4-3.4 0.4-3.6 0-5.3-1.1-1.7-1.2-2.1-2.9-0.4-1.7-0.4-4.5v-13.5h-3.3v-0.9h10.7v0.9h-3.5v13.1q0 2.7 0.3 4.3 0.2 1.5 1.3 2.6 1.1 1 3.5 1 1.9 0 3.5-0.8 1.5-0.8 2.1-2.1 0.6-1.3 0.6-5z"/><path class="c" d="m30 557.3v-11.4h-2.3v-0.8h1.5q2.2 0 4.1-0.3v3.3q1.7-3.4 4.9-3.4 1.4 0 2.4 0.7 0.9 0.8 1.3 1.8 0.3 1 0.3 3.1v7h2.6v0.9h-8.1v-0.9h2.3v-8.3q0-1.9-0.3-2.6-0.2-0.8-1.2-0.8-1.7 0-2.9 1.7-1.3 1.6-1.3 4.4v5.6h2.1v0.9h-7.7v-0.9z"/><path class="c" d="m51.6 544.8v12.5h2.2v0.9h-7.7v-0.9h2.3v-11.4h-2.3v-0.8h2.3q1.7 0 3.2-0.3zm-3.3-6.4q0-0.7 0.5-1.3 0.6-0.5 1.3-0.5 0.7 0 1.3 0.5 0.5 0.6 0.5 1.3 0 0.8-0.5 1.3-0.5 0.5-1.3 0.5-0.7 0-1.3-0.5-0.5-0.5-0.5-1.3z"/><path class="c" d="m69.3 545.9l-6.3 12.8h-0.5l-6.4-12.8h-2v-0.8h8.2v0.8h-2.5l4.3 8.9 4.3-8.9h-2.5v-0.8h5.4v0.8z"/><path fill-rule="evenodd" class="c" d="m84.2 550.6h-8.5q-0.1 5 0.6 6.1 0.6 1.2 2.3 1.2 3.6 0 4.8-4.1h0.8q-0.6 2.4-2.1 3.6-1.6 1.2-3.5 1.2-2.6 0-4.6-2-2-2-2-5 0-2.9 1.9-4.9 2-2 4.6-2 2.2 0 3.9 1.6 1.6 1.5 1.8 4.3zm-8.5-0.7h4.9q0.1-1.2 0.1-1.8 0-2.7-2.4-2.7-1.2 0-1.9 0.7-0.7 0.6-0.7 1.7z"/><path class="c" d="m88.6 557.3v-11.4h-2.7v-0.8h2.8q2.1 0 3.2-0.2v3.1q1.2-3.1 3.5-3.1 1 0 1.6 0.6 0.6 0.6 0.6 1.5 0 0.8-0.5 1.2-0.5 0.5-1.3 0.5-1.4 0-1.4-1.4l0.1-0.7q0-0.4-0.4-0.4-0.5 0-1.4 1.5-0.8 1.5-0.8 4.5v5.1h2.7v0.9h-8.7v-0.9z"/><path class="c" d="m108.8 544.9v3.8h-0.7q-0.7-3.3-3.7-3.3-1.3 0-2.1 0.7-0.9 0.7-0.9 1.5 0 0.8 0.6 1.2 0.6 0.4 2.9 0.7 5 0.6 5 4.6 0 1.9-1.3 3.2-1.3 1.3-3.2 1.3-1.9 0-3.7-1.5l-1.1 1h-0.6v-5h0.6q1.4 4.8 4.8 4.8 1.3 0 2.3-0.9 1.1-0.8 1.1-1.9 0-0.9-0.7-1.4-0.6-0.4-3.3-0.8-4.7-0.7-4.7-4.2 0-1.7 1.2-2.9 1.3-1.1 3.1-1.1 1.9 0 3.2 1.2 0.4-0.3 0.7-1z"/><path class="c" d="m117.7 544.8v12.5h2.2v0.9h-7.8v-0.9h2.4v-11.4h-2.4v-0.8h2.4q1.7 0 3.2-0.3zm-3.3-6.4q0-0.7 0.5-1.3 0.5-0.5 1.3-0.5 0.7 0 1.2 0.5 0.6 0.6 0.6 1.3 0 0.8-0.5 1.3-0.6 0.5-1.3 0.5-0.8 0-1.3-0.5-0.5-0.5-0.5-1.3z"/><path class="c" d="m127.5 541.3v3.8h4v0.8h-4v8.3q0 1.8 0.2 2.5 0.3 0.6 1.3 0.6 0.8 0 1.6-0.5 0.7-0.5 1.1-1.6h0.7q-0.7 3.2-4.6 3.2-1.7 0-2.4-0.6-0.8-0.6-1-1.5-0.1-0.8-0.1-2.3v-8.1h-3v-0.8h3v-3.5q1.6 0 3.2-0.3z"/><path fill-rule="evenodd" class="c" d="m146.7 550.6h-8.4q-0.1 5 0.5 6.1 0.7 1.2 2.4 1.2 3.6 0 4.8-4.1h0.7q-0.5 2.4-2.1 3.6-1.5 1.2-3.4 1.2-2.7 0-4.6-2-2-2-2-5 0-2.9 1.9-4.9 2-2 4.5-2 2.3 0 3.9 1.6 1.7 1.5 1.8 4.3zm-8.1-8l-0.4-0.4 3.3-4.1q1-1.1 1.4-1.5 0.5-0.4 1.1-0.4 0.5 0 0.9 0.4 0.4 0.4 0.4 0.9 0 0.7-0.5 1.2-0.6 0.5-2 1.4zm-0.3 7.3h4.8q0.1-1.2 0.1-1.8 0-2.7-2.4-2.7-1.2 0-1.9 0.6-0.6 0.7-0.6 1.8z"/><path class="c" d="m171.6 535.6l0.1 5.8h-0.8q-1.7-5.2-5.9-5.2-2.3 0-3.6 1.3-1.3 1.2-1.3 2.6 0 1.3 1.1 2.2 1.1 0.9 3.9 1.4 2.9 0.5 4.4 1.2 1.4 0.7 2.5 2.4 1 1.6 1 3.8 0 3.2-2.1 5.4-2.2 2.2-5.4 2.2-2.5 0-5.1-1.9l-1.6 1.4h-0.6v-6.3h0.8q0.9 3 2.7 4.5 1.8 1.5 3.9 1.5 2.1 0 3.8-1.4 1.7-1.4 1.7-3.5 0-1.8-1.2-3-1.2-1.2-3.9-1.6-2.7-0.5-4.1-1.1-1.5-0.6-2.5-2.1-1.1-1.5-1.1-3.4 0-2.5 1.8-4.5 1.8-2 4.9-2 2.6 0 4.8 1.6 0.7-0.5 1.1-1.3z"/><path class="c" d="m190.1 545.1v12.2h2.2v0.9h-2.2q-2.6 0-3.3 0.2v-3.1h-0.1q-1.5 3.1-4.7 3.1-1.9 0-3-1-1.1-1-1.1-4.1v-7.4h-2.4v-0.8h5.6v8.8q0 2.1 0.3 2.8 0.2 0.8 1.3 0.8 1.5 0 2.8-1.6 1.3-1.6 1.3-4.9v-5.1h-2.7v-0.8z"/><path class="c" d="m196.3 557.3v-20.6h-2.4v-0.9h2.3q2.3 0 3.4-0.2v21.7h2.3v0.9h-8v-0.9z"/><path class="c" d="m209.5 541.3v3.8h4v0.8h-4v8.3q0 1.8 0.3 2.5 0.2 0.6 1.3 0.6 0.8 0 1.5-0.5 0.7-0.5 1.1-1.6h0.7q-0.7 3.2-4.6 3.2-1.6 0-2.4-0.6-0.8-0.6-0.9-1.5-0.2-0.8-0.2-2.3v-8.1h-3v-0.8h3v-3.5q1.6 0 3.2-0.3z"/><path fill-rule="evenodd" class="c" d="m225.4 550.7v-1.7q0-2.1-0.3-2.7-0.4-0.7-1.9-0.7-2.7 0-2.7 1.1 0 0.3 0.2 0.6 0.3 0.4 0.3 0.9 0 0.6-0.5 1-0.4 0.4-1 0.4-0.7 0-1.1-0.5-0.4-0.5-0.4-1.1 0-1.3 1.5-2.2 1.6-0.9 4.4-0.9 2.2 0 3.2 0.5 1.1 0.5 1.3 1.3 0.3 0.7 0.3 2.1v6.2q0 1.3 0.1 1.7 0.2 0.3 0.6 0.3 0.6 0 1.2-0.8h0.4q-0.4 2.4-2.8 2.4-2.3 0-2.8-2.7-1.9 2.7-4.6 2.7-1.7 0-2.7-0.9-1.1-1-1.1-2.3 0-4.3 8.4-4.7zm0 2.6v-1.8q-3.1 0.1-4.1 0.9-0.9 0.8-0.9 2.3 0 1.2 0.5 1.8 0.6 0.6 1.4 0.6 1 0 1.8-0.7 0.8-0.6 1-1.3 0.3-0.7 0.3-1.8z"/><path class="c" d="m235.4 557.3v-11.4h-2.3v-0.8h1.5q2.2 0 4.1-0.3v3.3q1.7-3.4 4.9-3.4 1.4 0 2.4 0.7 0.9 0.8 1.3 1.8 0.3 1 0.3 3.1v7h2.6v0.9h-8.1v-0.9h2.3v-8.3q0-1.9-0.3-2.6-0.2-0.8-1.2-0.8-1.7 0-2.9 1.7-1.3 1.6-1.3 4.4v5.6h2.1v0.9h-7.7v-0.9z"/><path class="c" d="m260.4 535.8h8l4.8 15.8h0.1l4.8-15.8h7.8v0.9h-3.3v20.6h3.3v0.9h-10.5v-0.9h3.4v-21l-6.7 21.9h-0.8l-6.6-21.9h-0.1v21h3.4v0.9h-7.6v-0.9h3.4v-20.6h-3.4z"/><path fill-rule="evenodd" class="c" d="m289.2 551.6q0-2.9 2-4.9 2-2 4.9-2 2.9 0 4.9 1.9 2 2 2 4.9 0 3-2.1 5-2.1 2.1-4.9 2.1-2.8 0-4.8-2-2-2-2-5zm10 0q0-3.1-0.2-4-0.2-1-0.9-1.6-0.8-0.6-2-0.6-1.2 0-2 0.6-0.8 0.6-1 1.6-0.1 1-0.1 4 0 3.1 0.2 4.1 0.2 1 1 1.6 0.7 0.6 1.9 0.6 1.1 0 1.9-0.6 0.8-0.6 1-1.6 0.2-1 0.2-4.1z"/><path class="c" d="m319.8 545.1v12.2h2.2v0.9h-2.2q-2.6 0-3.3 0.2v-3.1h-0.1q-1.5 3.1-4.7 3.1-1.8 0-3-1-1.1-1-1.1-4.1v-7.4h-2.4v-0.8h5.7v8.8q0 2.1 0.2 2.8 0.3 0.8 1.3 0.8 1.5 0 2.8-1.6 1.3-1.6 1.3-4.9v-5.1h-2.6v-0.8z"/><path class="c" d="m326 557.3v-20.6h-2.4v-0.9h2.3q2.3 0 3.4-0.2v21.7h2.3v0.9h-8v-0.9z"/><path fill-rule="evenodd" class="c" d="m342.3 550.7v-1.7q0-2.1-0.3-2.7-0.4-0.7-1.9-0.7-2.7 0-2.7 1.1 0 0.3 0.2 0.6 0.3 0.4 0.3 0.9 0 0.6-0.5 1-0.4 0.4-1 0.4-0.7 0-1.1-0.5-0.4-0.5-0.4-1.1 0-1.3 1.5-2.2 1.6-0.9 4.4-0.9 2.2 0 3.2 0.5 1.1 0.5 1.3 1.3 0.3 0.7 0.3 2.1v6.2q0 1.3 0.2 1.7 0.1 0.3 0.5 0.3 0.6 0 1.2-0.8h0.4q-0.4 2.4-2.8 2.4-2.3 0-2.8-2.7-1.9 2.7-4.6 2.7-1.7 0-2.7-0.9-1.1-1-1.1-2.3 0-4.3 8.4-4.7zm0 2.6v-1.8q-3.1 0.1-4.1 0.9-0.9 0.8-0.9 2.3 0 1.2 0.5 1.8 0.6 0.6 1.4 0.6 1 0 1.8-0.7 0.8-0.6 1-1.3 0.3-0.7 0.3-1.8z"/><path class="c" d="m354.2 545.9l4.7 9.2 4.1-9.2h-3v-0.8h6v0.8h-2.3l-6.7 15.3q-1.4 3.2-2.4 4.5-1.1 1.3-2.5 1.3-0.9 0-1.4-0.5-0.5-0.6-0.5-1.3 0-0.7 0.4-1.1 0.5-0.4 1-0.4 0.9 0 1.3 0.7 0.5 0.8 0.8 0.8 0.4 0 0.9-0.9 0.5-0.8 1.6-3.1l1.1-2.5-6.6-12.8h-2v-0.8h8v0.8z"/><path class="c" d="m390.2 535.6l0.1 5.8h-0.7q-1.7-5.2-5.9-5.2-2.4 0-3.6 1.3-1.3 1.2-1.3 2.6 0 1.3 1 2.2 1.1 0.9 4 1.4 2.8 0.5 4.3 1.2 1.5 0.7 2.5 2.4 1 1.6 1 3.8 0 3.2-2.1 5.4-2.1 2.2-5.3 2.2-2.6 0-5.2-1.9l-1.5 1.4h-0.6v-6.3h0.7q1 3 2.8 4.5 1.7 1.5 3.8 1.5 2.1 0 3.9-1.4 1.7-1.4 1.7-3.5 0-1.8-1.2-3-1.2-1.2-3.9-1.6-2.7-0.5-4.2-1.1-1.4-0.6-2.5-2.1-1-1.5-1-3.4 0-2.5 1.8-4.5 1.8-2 4.9-2 2.6 0 4.8 1.6 0.6-0.5 1.1-1.3z"/><path class="c" d="m396.5 557.3v-20.6h-2.4v-0.9h2.3q2.3 0 3.3-0.2v21.7h2.4v0.9h-8v-0.9z"/><path class="c" d="m409.1 544.8v12.5h2.2v0.9h-7.7v-0.9h2.3v-11.4h-2.3v-0.8h2.3q1.7 0 3.2-0.3zm-3.3-6.4q0-0.7 0.5-1.3 0.6-0.5 1.3-0.5 0.7 0 1.3 0.5 0.5 0.6 0.5 1.3 0 0.8-0.5 1.3-0.6 0.5-1.3 0.5-0.8 0-1.3-0.5-0.5-0.5-0.5-1.3z"/><path class="c" d="m415.5 557.3v-11.4h-2.4v-0.8h1.5q2.6 0 4.1-0.2v3.2h0.1q1.3-3.2 4.7-3.2 3.7 0 4.1 3.4 1.5-3.4 4.9-3.4 1.5 0 2.5 0.7 1 0.8 1.2 1.8 0.3 0.9 0.3 3.2v6.7h2.3v0.9h-7.8v-0.9h2.2v-8.2q0-1.9-0.2-2.7-0.2-0.7-1.2-0.7-1.4 0-2.8 1.5-1.4 1.5-1.4 5.8v4.3h2.1v0.9h-7.5v-0.9h2.2v-6.4q0-3.8-0.3-4.5-0.3-0.7-1.3-0.7-1.4 0-2.5 1.2-1.1 1.3-1.3 2.5-0.3 1.2-0.3 3.7v4.2h2.2v0.9h-7.8v-0.9z"/><path fill-rule="evenodd" class="c" d="m449.8 550.7v-1.7q0-2.1-0.4-2.7-0.3-0.7-1.8-0.7-2.7 0-2.7 1.1 0 0.3 0.2 0.6 0.2 0.4 0.2 0.9 0 0.6-0.4 1-0.5 0.4-1 0.4-0.8 0-1.2-0.5-0.4-0.5-0.4-1.1 0-1.3 1.6-2.2 1.5-0.9 4.3-0.9 2.3 0 3.3 0.5 1 0.5 1.3 1.3 0.2 0.7 0.2 2.1v6.2q0 1.3 0.2 1.7 0.2 0.3 0.6 0.3 0.6 0 1.2-0.8h0.4q-0.5 2.4-2.9 2.4-2.3 0-2.7-2.7-2 2.7-4.6 2.7-1.7 0-2.8-0.9-1-1-1-2.3 0-4.3 8.4-4.7zm0 2.6v-1.8q-3.1 0.1-4.1 0.9-1 0.8-1 2.3 0 1.2 0.6 1.8 0.6 0.6 1.4 0.6 0.9 0 1.7-0.7 0.8-0.6 1.1-1.3 0.3-0.7 0.3-1.8z"/><path class="c" d="m459.8 557.3v-11.4h-2.4v-0.8h1.5q2.3 0 4.1-0.3v3.3h0.1q1.7-3.4 4.8-3.4 1.5 0 2.4 0.7 1 0.8 1.3 1.8 0.4 1 0.4 3.1v7h2.6v0.9h-8.1v-0.9h2.2v-8.3q0-1.9-0.2-2.6-0.3-0.8-1.3-0.8-1.6 0-2.9 1.7-1.3 1.6-1.3 4.4v5.6h2.2v0.9h-7.8v-0.9z"/><path fill-rule="evenodd" class="c" d="m488.4 550.6h-8.5q-0.1 5 0.6 6.1 0.6 1.2 2.4 1.2 3.5 0 4.7-4.1h0.8q-0.6 2.4-2.1 3.6-1.6 1.2-3.4 1.2-2.7 0-4.7-2-2-2-2-5 0-2.9 1.9-4.9 2-2 4.6-2 2.2 0 3.9 1.6 1.6 1.5 1.8 4.3zm-8.5-0.7h4.9q0.1-1.2 0.1-1.8 0-2.7-2.4-2.7-1.2 0-1.9 0.7-0.7 0.6-0.7 1.7z"/></svg>